<?xml version="1.0" encoding="UTF-8" standalone="no"?><!DOCTYPE svg PUBLIC "-//W3C//DTD SVG 1.1//EN" "http://www.w3.org/Graphics/SVG/1.1/DTD/svg11.dtd"><svg width="100%" height="100%" viewBox="0 0 2704 860" version="1.1" xmlns="http://www.w3.org/2000/svg" xmlns:xlink="http://www.w3.org/1999/xlink" xml:space="preserve" xmlns:serif="http://www.serif.com/" style="fill-rule:evenodd;clip-rule:evenodd;stroke-linejoin:round;stroke-miterlimit:2;"><g><g id="wordmark"><path d="M1158.74,659.137c-33.792,-2.055 -50.687,-16.472 -50.687,-45.285l0,-186.659c-2.299,-37.743 -25.348,-56.271 -70.667,-56.271c-45.313,0 -68.354,18.528 -69.118,56.271l0,231.944l-103.688,0l0,-213.423c0,-103.612 58.375,-155.084 174.355,-155.084c115.972,0 172.798,51.472 172.034,155.084l0,213.423l-52.229,0Z" style="fill:#090d23;fill-rule:nonzero;"/><path d="M1510.51,510.225l0,-33.632c-23.812,8.916 -51.458,16.472 -81.424,21.958c-40.694,6.875 -61.437,24.028 -61.437,50.792c2.319,28.826 19.201,42.548 51.472,42.548c56.82,0 91.389,-30.194 91.389,-81.666m-129.021,-119.403l-102.16,0c12.285,-67.25 65.292,-100.195 158.987,-100.195c112.125,0 168.972,32.945 171.27,100.195l0,123.521c0,100.194 -67.583,144.791 -177.409,151.666c-97.542,6.848 -165.139,-33.632 -165.139,-113.923c2.298,-87.146 72.965,-110.493 175.896,-119.41c43.764,-4.806 66.034,-16.458 66.034,-36.368c-2.298,-20.583 -23.798,-30.882 -66.034,-30.882c-36.105,0 -56.084,8.236 -61.445,25.396" style="fill:#090d23;fill-rule:nonzero;"/><path d="M1778.56,476.595c-0.771,73.43 26.889,110.493 85.25,110.493c58.375,0 87.555,-37.063 87.555,-110.493c-2.298,-69.993 -30.715,-104.306 -86.02,-104.306c-55.292,0 -83.723,34.313 -86.785,104.306m274.194,-238.118l0,263.507c0,109.118 -63.757,163.326 -190.479,162.639c-125.951,-2.056 -188.923,-63.132 -188.923,-183.91c0,-123.521 53.75,-186.646 162.048,-190.083c50.681,0 89.854,18.534 115.965,56.277l0,-154.402l50.702,0c27.646,0 50.687,21.27 50.687,45.972" style="fill:#090d23;fill-rule:nonzero;"/><path d="M2220.19,237.109l0,422.028l-102.139,0l0,-466.632l52.986,0c26.896,0 49.153,20.59 49.153,44.604" style="fill:#090d23;fill-rule:nonzero;"/><path d="M2400.68,438.176l152.833,0c-6.138,-48.035 -31.5,-72.75 -75.27,-72.75c-43.785,0 -69.896,24.715 -77.563,72.75m77.563,229.194c-122.882,-3.43 -184.327,-67.243 -184.327,-190.777c0,-123.507 62.209,-185.278 185.868,-185.966c129.035,0 189.688,70.688 182.021,212.743l-262.68,0c3.854,55.577 30.729,83.716 80.659,83.716c23.806,0 46.077,-8.917 66.035,-26.077c9.229,-8.923 20.75,-13.034 34.569,-13.034l75.264,0c-22.257,76.847 -77.562,119.395 -177.409,119.395" style="fill:#090d23;fill-rule:nonzero;"/></g><g id="editable-main-nadle-sm"><path id="Path" d="M602.913,51.596l-190.273,0l-1.138,0c-45.832,0 -82.982,37.149 -82.982,82.981l0,557.635c0,8.776 -3.488,17.195 -9.689,23.403c-6.208,6.201 -14.627,9.689 -23.403,9.689l-159.927,0l0,-287.822l-93.81,0c-0.192,2.032 -0.324,4.111 -0.324,6.262l0,364.535l287.153,0c46.462,0 84.12,-37.665 84.12,-84.12l0,-556.49c0,-8.776 3.488,-17.194 9.69,-23.402c6.208,-6.202 14.626,-9.69 23.403,-9.69l157.18,0l0,290.814l93.611,0c1.019,-9.868 1.337,-20.597 1.337,-31.822l-0.821,-258.992l0.821,-82.981l-94.948,0Z" style="fill:#2f5de9;fill-rule:nonzero;"/><path id="Path1" serif:id="Path" d="M328.52,218.4l-0.006,182.953l0,137.405c20.014,65.35 84.126,90.573 84.126,90.573l0,-227.978l0,-37.811l0,-59.11c-20.139,-62.074 -84.12,-86.032 -84.12,-86.032" style="fill:#2a4db5;fill-rule:nonzero;"/><path id="Path2" serif:id="Path" d="M227.179,253.04c-103.068,0.484 -186.229,84.432 -185.741,187.494c0,0.066 0.015,3.6 0.015,3.666l93.922,-1.363c-0.02,-53.159 39.009,-99.574 92.221,-99.826c45.316,-0.212 83.386,30.849 94.035,72.876c0.019,-0.04 0,0 0,0c0,0 2.647,8.597 2.713,9.49c0.94,4.064 1.9,9.24 2.595,15.09l0.006,0c0.682,4.951 1.569,11.298 1.814,13.045c8.352,35.813 26.903,67.667 52.556,92.261c33.735,32.344 79.501,52.213 129.927,51.977c103.062,-0.486 186.215,-84.434 185.734,-187.496c-0.028,-6.221 -94.055,-2.131 -94.055,-2.131c0.014,3.089 -0.189,6.205 -0.432,9.236c-3.953,49.355 -41.388,90.175 -91.671,90.418c-43.827,0.205 -80.87,-28.83 -92.896,-68.759l-0.053,-0.013l-0.02,-0.033l0.073,0.046c0,0 -1.979,-5.473 -3.164,-10.192c-0.906,-4.633 -1.641,-9.862 -2.164,-13.952l0,-0.007c-0.245,-1.873 -1.244,-8.134 -1.833,-11.833c-7.625,-38.142 -26.653,-72.128 -53.669,-98.019c-33.535,-32.146 -78.958,-51.975 -129.019,-51.975l-0.894,0Z" style="fill:#2f5de9;fill-rule:nonzero;"/></g></g></svg>