<?xml version="1.0" encoding="UTF-8"?>
<svg width="144px" height="42px" viewBox="0 0 144 42" version="1.1" xmlns="http://www.w3.org/2000/svg" xmlns:xlink="http://www.w3.org/1999/xlink">
    <!-- Generator: Sketch 57.1 (83088) - https://sketch.com -->
    <title>editable-main-nadle--white</title>
    <desc>Created with Sketch.</desc>
    <g id="App---Auth" stroke="none" stroke-width="1" fill="none" fill-rule="evenodd">
        <g id="login-screen" transform="translate(-46.000000, -93.000000)" fill-rule="nonzero">
            <g id="editable-main-nadle--white" transform="translate(46.000000, 93.000000)">
                <g id="wordmark" transform="translate(45.000000, 8.000000)" fill="#FFFFFF">
                    <path d="M16.1061887,25.9136649 C14.259611,25.7996672 13.3363767,24.9999075 13.3363767,23.4015533 L13.3363767,13.046949 C13.2107469,10.9532175 11.9512248,9.9254068 9.4747494,9.9254068 C6.99860185,9.9254068 5.73951691,10.9532175 5.69776782,13.046949 L5.69776782,25.9136649 L0.031694339,25.9136649 L0.031694339,14.0743713 C0.031694339,8.3266642 3.22162026,5.47133876 9.55939515,5.47133876 C15.8967329,5.47133876 19.002013,8.3266642 18.960264,14.0743713 L18.960264,25.9136649 L16.1061887,25.9136649 Z" id="Path"></path>
                    <path d="M35.3288053,17.6530141 L35.3288053,15.7873336 C34.0275888,16.2819342 32.5168617,16.701091 30.8793573,17.0054179 C28.6556169,17.3867973 27.5221071,18.3383321 27.5221071,19.8230214 C27.6488298,21.4220969 28.5713537,22.1833025 30.3348158,22.1833025 C33.4397681,22.1833025 35.3288053,20.5083395 35.3288053,17.6530141 M28.2783996,11.0293269 L22.6958243,11.0293269 C23.3671432,7.2987426 26.2637326,5.47117234 31.3837344,5.47117234 C37.5108513,5.47117234 40.617279,7.2987426 40.7428541,11.0293269 L40.7428541,17.8814534 C40.7428541,23.4395525 37.0497533,25.9134985 31.0482663,26.294878 C25.7180435,26.6747596 22.0241776,24.4291975 22.0241776,19.9751849 C22.1497527,15.1409024 26.01138,13.8457655 31.6360869,13.3511095 C34.0275888,13.0845044 35.2445421,12.4381287 35.2445421,11.3336538 C35.1189669,10.1918454 33.9440906,9.62052515 31.6360869,9.62052515 C29.6631143,9.62052515 28.5713537,10.0774038 28.2783996,11.0293269" id="Shape"></path>
                    <path d="M49.976508,15.7874445 C49.9343764,19.8608543 51.4458685,21.9168639 54.6350294,21.9168639 C57.8249553,21.9168639 59.4195084,19.8608543 59.4195084,15.7874445 C59.2939333,11.9046967 57.7410746,10.0012389 54.7189101,10.0012389 C51.697456,10.0012389 50.1438322,11.9046967 49.976508,15.7874445 M64.9599521,2.57823595 L64.9599521,17.195858 C64.9599521,23.2490015 61.4759246,26.2561021 54.5511487,26.2179919 C47.6685044,26.1039386 44.2273735,22.7158469 44.2273735,16.0158839 C44.2273735,9.1637574 47.1645644,5.66200074 53.0825532,5.47133876 C55.8520373,5.47133876 57.9926621,6.49948225 59.4195084,8.59321376 L59.4195084,0.0280140533 L62.1901401,0.0280140533 C63.7008672,0.0280140533 64.9599521,1.20793269 64.9599521,2.57823595" id="Shape"></path>
                    <path d="M74.1095613,2.50234837 L74.1095613,25.9136649 L68.5281336,25.9136649 L68.5281336,0.0280140533 L71.4235754,0.0280140533 C72.8933184,0.0280140533 74.1095613,1.1702108 74.1095613,2.50234837" id="Path"></path>
                    <path d="M83.9725117,13.656213 L92.324134,13.656213 C91.9887204,10.9915496 90.6028035,9.62052515 88.2109738,9.62052515 C85.8183244,9.62052515 84.3914781,10.9915496 83.9725117,13.656213 M88.2109738,26.3703772 C81.4960363,26.1801036 78.1383489,22.6401812 78.1383489,15.7873336 C78.1383489,8.93598373 81.5377854,5.50933802 88.2951824,5.47117234 C95.3463531,5.47117234 98.6607613,9.39247411 98.2417949,17.2727441 L83.8875381,17.2727441 C84.0981415,20.3557877 85.566737,21.916753 88.2951824,21.916753 C89.5960711,21.916753 90.813079,21.4220969 91.9036922,20.4701738 C92.4080147,19.9751849 93.0375845,19.7471339 93.7927294,19.7471339 L97.9055617,19.7471339 C96.6893188,24.0100962 93.6671542,26.3703772 88.2109738,26.3703772" id="Shape"></path>
                </g>
                <g id="editable-main-nadle-sm">
                    <path d="M30.7555932,0.0326821057 L20.3412426,0.0326821057 L20.2789556,0.0326821057 C17.7703994,0.0326821057 15.7370414,2.0697753 15.7370414,4.58300729 L15.7370414,35.1613395 C15.7370414,35.642578 15.5461302,36.1042402 15.2067263,36.4446605 C14.8669393,36.784697 14.4061361,36.9759641 13.9257929,36.9759641 L5.17239201,36.9759641 L5.17239201,21.1930295 L0.0378210059,21.1930295 C0.0273121302,21.3044557 0.0200872781,21.4184592 0.0200872781,21.5364109 L0.0200872781,41.5259603 L15.7370414,41.5259603 C18.2800799,41.5259603 20.3412426,39.4605718 20.3412426,36.9131772 L20.3412426,6.39763186 C20.3412426,5.91639334 20.5321538,5.45478601 20.8716124,5.11436569 C21.2113994,4.77427438 21.6721479,4.58300729 22.1525459,4.58300729 L30.7555932,4.58300729 L30.7555932,20.5300105 L35.8792722,20.5300105 C35.9350459,19.9888913 35.9524512,19.4005586 35.9524512,18.7850273 L35.9075148,4.58300729 L35.9524512,0.0326821057 L30.7555932,0.0326821057 Z" id="Path" fill="#FFFFFF"></path>
                    <path d="M15.7370414,9.17950418 L15.736713,19.2118688 L15.736713,26.7465747 C16.8321538,30.3300908 20.3412426,31.7132129 20.3412426,31.7132129 L20.3412426,19.2118688 L20.3412426,17.1384743 L20.3412426,13.8971332 C19.2389601,10.493259 15.7370414,9.17950418 15.7370414,9.17950418" id="Path1" fill="#E5E5E5"></path>
                    <path d="M10.1902707,11.0790145 C4.54897485,11.105555 -0.00273668639,15.7089063 0.0238564182,21.3603882 C0.0238564182,21.3640073 0.0247943787,21.5577969 0.0247943787,21.561416 L5.16549556,21.4866749 C5.16440089,18.5716614 7.30060355,16.0264602 10.2130947,16.0126416 C12.6934083,16.0010164 14.7771213,17.7042695 15.3599808,20.0088515 C15.3610207,20.0066581 15.3599808,20.0088515 15.3599808,20.0088515 C15.3599808,20.0088515 15.5048609,20.4802744 15.5084734,20.5292428 C15.5599231,20.7520952 15.6124675,21.0359251 15.6505074,21.3567142 L15.6508358,21.3567142 C15.6881642,21.628206 15.736713,21.9762485 15.7501228,22.0720465 C16.2072589,24.0358792 17.2226243,25.7826171 18.6267086,27.1312474 C20.4731509,28.9048549 22.9780947,29.9943863 25.7380976,29.9815591 C31.3790651,29.9547949 35.9303388,25.3514436 35.9041255,19.6999617 C35.9024793,19.3588286 30.7560311,19.5831068 30.7560311,19.5831068 C30.7567973,19.7524944 30.7456864,19.9233626 30.7323861,20.0895697 C30.5160237,22.7959881 28.4670666,25.0343833 25.7148905,25.0477084 C23.3160754,25.0589497 21.288574,23.4667938 20.6303462,21.2772572 L20.6274453,21.2765443 L20.6263506,21.2747347 L20.6303462,21.2772572 C20.6303462,21.2772572 20.5220281,20.9771411 20.4571686,20.7183713 C20.4075799,20.4643172 20.3673506,20.1775811 20.3387249,19.9533029 L20.3387249,19.952919 C20.3253151,19.8502117 20.2706361,19.5068851 20.2383979,19.3040476 C19.8210533,17.2125026 18.7795799,15.3488548 17.3008935,13.9291025 C15.4653979,12.1663525 12.9792278,11.0790145 10.2392027,11.0790145 L10.1902707,11.0790145 L10.1902707,11.0790145 Z" id="Path2" fill="#FFFFFF"></path>
                </g>
            </g>
        </g>
    </g>
</svg>