<?xml version="1.0" encoding="UTF-8"?>
<svg width="98px" height="29px" viewBox="0 0 98 29" version="1.1" xmlns="http://www.w3.org/2000/svg" xmlns:xlink="http://www.w3.org/1999/xlink">
    <!-- Generator: Sketch 57.1 (83088) - https://sketch.com -->
    <title>editable-main-nadle</title>
    <desc>Created with Sketch.</desc>
    <g id="Page-1" stroke="none" stroke-width="1" fill="none" fill-rule="evenodd">
        <g id="editable-main-nadle" transform="translate(0.516272, 0.886095)" fill-rule="nonzero">
            <g id="wordmark" transform="translate(30.436391, 5.214497)" fill="#090D23">
                <path d="M10.9001479,17.2757766 C9.65044379,17.1997781 9.0256287,16.666605 9.0256287,15.6010355 L9.0256287,8.69796598 C8.94060651,7.30214497 8.08820266,6.61693787 6.41220414,6.61693787 C4.73642751,6.61693787 3.88431953,7.30214497 3.85606509,8.69796598 L3.85606509,17.2757766 L0.0214497041,17.2757766 L0.0214497041,9.3829142 C0.0214497041,5.55110947 2.18028846,3.64755917 6.46948964,3.64755917 C10.758395,3.64755917 12.8599482,5.55110947 12.8316938,9.3829142 L12.8316938,17.2757766 L10.9001479,17.2757766 Z" id="Path"></path>
                <path d="M23.9093935,11.768676 L23.9093935,10.5248891 C23.0287722,10.8546228 22.0063609,11.1340607 20.8981509,11.3369453 C19.3931953,11.5911982 18.6260725,12.2255547 18.6260725,13.2153476 C18.7118343,14.2813979 19.3361686,14.7888683 20.5296228,14.7888683 C22.6309541,14.7888683 23.9093935,13.6722263 23.9093935,11.768676 M19.1379068,7.35288462 L15.3598003,7.35288462 C15.8141272,4.8658284 17.7744453,3.64744822 21.239497,3.64744822 C25.3861317,3.64744822 27.4884615,4.8658284 27.5734467,7.35288462 L27.5734467,11.9209689 C27.5734467,15.6263683 25.0740754,17.2756657 21.012463,17.5299186 C17.4051405,17.7831731 14.9052515,16.2861317 14.9052515,13.3167899 C14.9902367,10.0939349 17.6036612,9.23051036 21.4102811,8.90073964 C23.0287722,8.72300296 23.8523669,8.2920858 23.8523669,7.55576923 C23.7673817,6.79456361 22.9722633,6.41368343 21.4102811,6.41368343 C20.075037,6.41368343 19.3361686,6.71826923 19.1379068,7.35288462" id="Shape"></path>
                <path d="M33.8224852,10.524963 C33.7939719,13.2405695 34.8169009,14.6112426 36.9752219,14.6112426 C39.1340607,14.6112426 40.2132027,13.2405695 40.2132027,10.524963 C40.1282175,7.9364645 39.0772929,6.6674926 37.0319896,6.6674926 C34.9871672,6.6674926 33.9357249,7.9364645 33.8224852,10.524963 M43.9627959,1.71882396 L43.9627959,11.4639053 C43.9627959,15.4993343 41.6049186,17.504068 36.9184541,17.4786612 C32.260503,17.4026257 29.9316568,15.1438979 29.9316568,10.6772559 C29.9316568,6.1091716 31.9194527,3.77466716 35.9245562,3.64755917 C37.7988536,3.64755917 39.2475592,4.33298817 40.2132027,5.72880917 L40.2132027,0.0186760355 L42.0882766,0.0186760355 C43.1106879,0.0186760355 43.9627959,0.805288462 43.9627959,1.71882396" id="Shape"></path>
                <path d="M50.1549556,1.66823225 L50.1549556,17.2757766 L46.3776257,17.2757766 L46.3776257,0.0186760355 L48.3371672,0.0186760355 C49.3318417,0.0186760355 50.1549556,0.780140533 50.1549556,1.66823225" id="Path"></path>
                <path d="M56.8298817,9.10414201 L62.4819896,9.10414201 C62.2549926,7.3276997 61.3170488,6.41368343 59.6983358,6.41368343 C58.079068,6.41368343 57.1134246,7.3276997 56.8298817,9.10414201 M59.6983358,17.5802515 C55.1538831,17.4534024 52.8815089,15.0934541 52.8815089,10.5248891 C52.8815089,5.95732249 55.1821376,3.67289201 59.7553254,3.64744822 C64.5273299,3.64744822 66.7704142,6.26164941 66.4868713,11.5151627 L56.7723743,11.5151627 C56.9149038,13.5705251 57.9088018,14.6111686 59.7553254,14.6111686 C60.6357249,14.6111686 61.4593565,14.2813979 62.1974482,13.6467825 C62.5387574,13.3167899 62.9648299,13.1647559 63.4758876,13.1647559 L66.2593195,13.1647559 C65.4362056,16.0067308 63.3909024,17.5802515 59.6983358,17.5802515" id="Shape"></path>
            </g>
            <g id="editable-main-nadle-sm">
                <path d="M20.7808062,0.0220414201 L13.7440828,0.0220414201 L13.701997,0.0220414201 C12.0070266,0.0220414201 10.6331361,1.39589497 10.6331361,3.09086538 L10.6331361,23.7134615 C10.6331361,24.0380178 10.504142,24.3493713 10.2748151,24.5789571 C10.0452293,24.808284 9.73387574,24.9372781 9.40931953,24.9372781 L3.49485947,24.9372781 L3.49485947,14.2929734 L0.0255547337,14.2929734 C0.018454142,14.3681213 0.0135724852,14.4450074 0.0135724852,14.5245562 L0.0135724852,28.0058802 L10.6331361,28.0058802 C12.3514053,28.0058802 13.7440828,26.6129438 13.7440828,24.8949334 L13.7440828,4.31468195 C13.7440828,3.99012574 13.8730769,3.67880917 14.1024408,3.44922337 C14.3320266,3.21985947 14.6433432,3.09086538 14.9679364,3.09086538 L20.7808062,3.09086538 L20.7808062,13.845821 L24.2427515,13.845821 C24.2804364,13.4808802 24.2921967,13.0840976 24.2921967,12.6689719 L24.2618343,3.09086538 L24.2921967,0.0220414201 L20.7808062,0.0220414201 Z" id="Path" fill="#2F5DE9"></path>
                <path d="M10.6331361,6.1908284 L10.6329142,12.9568417 L10.6329142,18.0383876 C11.3730769,20.4551775 13.7440828,21.3879808 13.7440828,21.3879808 L13.7440828,12.9568417 L13.7440828,11.5585059 L13.7440828,9.37248521 C12.9992973,7.07684911 10.6331361,6.1908284 10.6331361,6.1908284" id="Path1" fill="#2A4DB5"></path>
                <path d="M6.88531805,7.47189349 C3.07363166,7.4897929 -0.00184911243,10.5943787 0.0161192015,14.4058432 C0.0161192015,14.408284 0.0167529586,14.5389793 0.0167529586,14.5414201 L3.4901997,14.4910133 C3.48946006,12.525074 4.93284024,10.8085429 6.90073964,10.7992234 C8.57662722,10.7913831 9.98454142,11.9400888 10.3783654,13.4943417 C10.379068,13.4928624 10.3783654,13.4943417 10.3783654,13.4943417 C10.3783654,13.4943417 10.4762574,13.8122781 10.4786982,13.8453033 C10.5134615,13.9955991 10.5489645,14.1870192 10.5746672,14.4033654 L10.5748891,14.4033654 C10.6001109,14.5864645 10.6329142,14.8211908 10.6419749,14.8857988 C10.9508506,16.2102441 11.6369083,17.3882766 12.5856139,18.297818 C13.8332101,19.4939719 15.5257396,20.2287722 17.3906065,20.2201213 C21.202071,20.202071 24.2772559,17.0974852 24.2595442,13.2860207 C24.258432,13.0559541 20.7811021,13.2072115 20.7811021,13.2072115 C20.7816198,13.3214497 20.7741124,13.4366864 20.7651257,13.5487796 C20.6189349,15.3740385 19.2345044,16.8836538 17.374926,16.8926405 C15.754105,16.9002219 14.3841716,15.8264423 13.9394231,14.3497781 L13.937463,14.3492973 L13.9367234,14.3480769 L13.9394231,14.3497781 C13.9394231,14.3497781 13.8662352,14.1473743 13.8224112,13.972855 C13.7889053,13.8015163 13.7617234,13.6081361 13.7423817,13.4568787 L13.7423817,13.4566198 C13.733321,13.3873521 13.6963757,13.1558062 13.6745932,13.0190089 C13.3926036,11.608432 12.6889053,10.3515533 11.6897929,9.39404586 C10.4495932,8.2052145 8.76974852,7.47189349 6.91838018,7.47189349 L6.88531805,7.47189349 L6.88531805,7.47189349 Z" id="Path2" fill="#2F5DE9"></path>
            </g>
        </g>
    </g>
</svg>