<?xml version="1.0" encoding="UTF-8"?>
<svg width="100px" height="115px" viewBox="0 0 100 115" version="1.1" xmlns="http://www.w3.org/2000/svg" xmlns:xlink="http://www.w3.org/1999/xlink">
    <!-- Generator: Sketch 57.1 (83088) - https://sketch.com -->
    <title>editable-main-nadle-sm</title>
    <desc>Created with Sketch.</desc>
    <g id="Page-1" stroke="none" stroke-width="1" fill="none" fill-rule="evenodd">
        <g id="editable-main-nadle-sm" transform="translate(0.773994, 0.464396)" fill-rule="nonzero">
            <path d="M84.4947368,0.109907121 L55.8791022,0.109907121 L55.7078947,0.109907121 C48.8150155,0.109907121 43.2280186,5.69690402 43.2280186,12.5897833 L43.2280186,96.4540248 C43.2280186,97.773839 42.7034056,99.0399381 41.770743,99.9736842 C40.8371517,100.906347 39.5710526,101.430805 38.2512384,101.430805 L14.199226,101.430805 L14.199226,58.144582 L0.0910216718,58.144582 C0.0620743034,58.4501548 0.0422600619,58.7626935 0.0422600619,59.0862229 L0.0422600619,113.909752 L43.2280186,113.909752 C50.2154799,113.909752 55.8791022,108.245046 55.8791022,101.258669 L55.8791022,17.5665635 C55.8791022,16.2467492 56.4035604,14.9806502 57.3362229,14.0470588 C58.269969,13.1143963 59.5360681,12.5897833 60.8558824,12.5897833 L84.4947368,12.5897833 L84.4947368,56.3260062 L98.573065,56.3260062 C98.7264706,54.8419505 98.7741486,53.228483 98.7741486,51.5402477 L98.650774,12.5897833 L98.7741486,0.109907121 L84.4947368,0.109907121 L84.4947368,0.109907121 Z" id="Path" fill="#2F5DE9"></path>
            <path d="M43.2280186,25.1959752 L43.226935,52.7108359 L43.226935,73.3755418 C46.2369969,83.2037152 55.8791022,86.9970588 55.8791022,86.9970588 L55.8791022,52.7108359 L55.8791022,47.0243034 L55.8791022,38.1348297 C52.8501548,28.799226 43.2280186,25.1959752 43.2280186,25.1959752" id="Path1" fill="#2A4DB5"></path>
            <path d="M27.9869969,30.4057276 C12.4862229,30.478483 -0.0204334365,43.1035604 0.052466515,58.6034056 C0.052466515,58.6133127 0.0551083591,59.1448916 0.0551083591,59.1547988 L14.1803406,58.9498452 C14.1773994,50.9549536 20.0470588,43.974613 28.0496904,43.9366873 C34.8650155,43.9049536 40.5902477,48.576161 42.1917957,54.8965944 C42.1947368,54.8907121 42.1917957,54.8965944 42.1917957,54.8965944 C42.1917957,54.8965944 42.5899381,56.1896285 42.5998452,56.3239938 C42.7413313,56.9351393 42.8856037,57.7134675 42.9900929,58.5934985 L42.9910217,58.5934985 C43.0936533,59.3379257 43.226935,60.2925697 43.2637771,60.5552632 C44.519969,65.9411765 47.3099071,70.7318885 51.1679567,74.4306502 C56.2413313,79.2950464 63.1243034,82.2831269 70.7078947,82.2478379 C86.2077399,82.174613 98.7134675,69.5493808 98.6414883,54.0495356 C98.6368421,53.1139319 84.4958204,53.7291022 84.4958204,53.7291022 C84.4979876,54.1934985 84.4674923,54.6622291 84.4309598,55.1181115 C83.8363777,62.5407121 78.2065015,68.6797214 70.6442724,68.7162539 C64.0529412,68.7470588 58.4818885,64.3804954 56.6733746,58.375387 L56.6653251,58.3735294 L56.6623839,58.3684211 L56.6733746,58.375387 C56.6733746,58.375387 56.3756966,57.552322 56.1975232,56.8425697 C56.0611455,56.1458204 55.950774,55.3594427 55.8721362,54.7444272 L55.8721362,54.7433437 C55.8352941,54.4617647 55.6849845,53.5201238 55.5964396,52.9636223 C54.4496904,47.2273994 51.5880805,42.1162539 47.5249226,38.222291 C42.4814241,33.3879257 35.6503096,30.4057276 28.1213622,30.4057276 L27.9869969,30.4057276 Z" id="Path2" fill="#2F5DE9"></path>
        </g>
    </g>
</svg>