<?xml version="1.0" encoding="UTF-8" standalone="no"?><!DOCTYPE svg PUBLIC "-//W3C//DTD SVG 1.1//EN" "http://www.w3.org/Graphics/SVG/1.1/DTD/svg11.dtd"><svg width="100%" height="100%" viewBox="0 0 646 744" version="1.1" xmlns="http://www.w3.org/2000/svg" xmlns:xlink="http://www.w3.org/1999/xlink" xml:space="preserve" xmlns:serif="http://www.serif.com/" style="fill-rule:evenodd;clip-rule:evenodd;stroke-linejoin:round;stroke-miterlimit:2;"><g id="editable-main-nadle-sm"><path id="Path" d="M550.836,3.71l-184.857,0l-1.106,0c-44.528,0 -80.62,36.092 -80.62,80.62l0,541.763c0,8.526 -3.389,16.705 -9.414,22.737c-6.031,6.025 -14.21,9.413 -22.736,9.413l-155.376,0l0,-279.629l-91.139,0c-0.187,1.974 -0.315,3.993 -0.315,6.083l0,354.16l278.98,0c45.139,0 81.726,-36.594 81.726,-81.726l0,-540.651c0,-8.526 3.388,-16.705 9.413,-22.736c6.032,-6.025 14.211,-9.414 22.737,-9.414l152.707,0l0,282.536l90.946,0c0.991,-9.587 1.299,-20.01 1.299,-30.916l-0.797,-251.62l0.797,-80.62l-92.245,0Z" style="fill:#2f5de9;fill-rule:nonzero;"/><path id="Path1" serif:id="Path" d="M284.253,165.766l-0.007,177.746l0,133.494c19.445,63.49 81.733,87.995 81.733,87.995l0,-221.489l0,-36.735l0,-57.426c-19.567,-60.308 -81.726,-83.585 -81.726,-83.585" style="fill:#2a4db5;fill-rule:nonzero;"/><path id="Path2" serif:id="Path" d="M185.796,199.421c-100.135,0.47 -180.928,82.028 -180.455,182.157c0,0.064 0.015,3.498 0.015,3.562l91.249,-1.324c-0.019,-51.647 37.899,-96.74 89.596,-96.985c44.027,-0.205 81.012,29.971 91.358,70.801c0.019,-0.038 0,0 0,0c0,0 2.572,8.353 2.636,9.221c0.914,3.948 1.846,8.976 2.521,14.661l0.006,0c0.663,4.809 1.524,10.976 1.762,12.673c8.115,34.793 26.138,65.741 51.061,89.635c32.774,31.424 77.238,50.727 126.228,50.497c100.129,-0.471 180.916,-82.03 180.449,-182.159c-0.028,-6.044 -91.379,-2.07 -91.379,-2.07c0.014,3 -0.183,6.028 -0.419,8.973c-3.841,47.95 -40.21,87.608 -89.062,87.844c-42.58,0.199 -78.569,-28.009 -90.252,-66.802l-0.052,-0.012l-0.019,-0.033l0.071,0.045c0,0 -1.923,-5.317 -3.074,-9.902c-0.881,-4.501 -1.594,-9.581 -2.102,-13.554l0,-0.007c-0.238,-1.819 -1.209,-7.902 -1.781,-11.497c-7.408,-37.056 -25.894,-70.074 -52.142,-95.229c-32.581,-31.23 -76.71,-50.495 -125.347,-50.495l-0.868,0Z" style="fill:#2f5de9;fill-rule:nonzero;"/></g></svg>