<?xml version="1.0" encoding="UTF-8"?>
<svg width="529px" height="286px" viewBox="0 0 529 286" version="1.1" xmlns="http://www.w3.org/2000/svg" xmlns:xlink="http://www.w3.org/1999/xlink">
    <!-- Generator: Sketch 57.1 (83088) - https://sketch.com -->
    <title>header__shapes</title>
    <desc>Created with Sketch.</desc>
    <g id="Symbols" stroke="none" stroke-width="1" fill="none" fill-rule="evenodd">
        <g id="auth-header" transform="translate(0.000000, 2.000000)" fill="#FFFFFF">
            <g transform="translate(0.000000, -2.000000)" id="header__shapes">
                <g>
                    <path d="M417.369979,35.4447376 C432.947253,48.1751828 438.425142,67.589488 458.233186,75.8322464 C477.739486,83.9478843 501.914118,82.0812207 518.653876,96.422416 C543.567814,117.768618 518.702382,148.525079 494.435755,154.697112 C464.978934,162.190529 434.579748,150.555661 404.89712,156.016823 C385.730365,159.542743 367.675914,170.272714 348.649661,174.213448 C340.15768,175.97139 332.670953,168.927913 333.408587,160.28874 L333.42364,160.11144 C335.047771,139.364042 312.778274,130.273257 298.105896,121.839818 C287.864336,115.950461 268.975239,97.0245655 285.552751,86.0988963 C296.883198,78.6339145 312.043986,86.8800181 323.703943,89.0544471 C345.709164,93.1574273 354.542363,80.0088226 362.254896,61.7887807 C370.838872,41.5113944 395.006814,17.1711712 417.369979,35.4447376 Z" id="Fill-1" fill-opacity="0.1"></path>
                    <path d="M425.098,205 C416.221,205 409,212.221 409,221.098 C409,229.975 416.221,237.198 425.098,237.198 C433.975,237.198 441.196,229.975 441.196,221.098 C441.196,212.221 433.975,205 425.098,205 Z M425.098,242.198 C413.465,242.198 404,232.733 404,221.098 C404,209.465 413.465,200 425.098,200 C436.731,200 446.197,209.465 446.197,221.098 C446.197,232.733 436.731,242.198 425.098,242.198 Z" id="Fill-1"></path>
                    <path d="M9.83812579,192.999112 C8.28412579,192.999112 7.51112579,193.644112 7.04512579,194.175112 C4.73512579,196.812112 5.03812579,203.190112 6.14612579,206.779112 C6.43012579,207.702112 6.75112579,208.664112 7.08112579,209.655112 C9.45712579,216.789112 12.7111258,226.560112 5.47212579,233.206112 L5.36012579,233.306112 C4.39812579,234.178112 3.89412579,235.449112 4.01912579,236.758112 C4.13712579,238.004112 4.79612579,239.051112 5.87312579,239.705112 C9.49112579,241.901112 13.4891258,243.491112 17.7211258,245.175112 C22.2061258,246.958112 26.8421258,248.802112 30.9661258,251.435112 C36.8141258,255.166112 41.4361258,260.289112 45.9071258,265.243112 C50.9101258,270.787112 55.6351258,276.024112 61.9221258,279.466112 C67.9891258,282.786112 76.6321258,282.778112 81.5991258,279.444112 C84.9311258,277.208112 86.3601258,273.768112 85.8461258,269.220112 C85.1891258,263.399112 81.7771258,258.631112 78.1651258,253.585112 C75.8901258,250.405112 73.5371258,247.118112 71.8961258,243.507112 C69.1771258,237.525112 69.7811258,231.895112 70.3641258,226.451112 C70.7431258,222.917112 71.1011258,219.580112 70.6261258,216.095112 C70.1381258,212.527112 68.4641258,209.925112 65.6471258,208.359112 C60.1821258,205.320112 51.7131258,206.611112 46.1571258,209.095112 C38.2811258,212.613112 29.2571258,215.530112 21.8421258,205.498112 C20.9331258,204.269112 20.1191258,202.886112 19.2581258,201.422112 C17.0341258,197.643112 14.7351258,193.735112 11.0001258,193.104112 C10.5701258,193.031112 10.1851258,192.999112 9.83812579,192.999112 Z M72.1261258,285.947112 C67.9401258,285.947112 63.6261258,284.958112 60.0021258,282.974112 C53.1201258,279.207112 47.9431258,273.471112 42.9381258,267.923112 C38.4471258,262.947112 34.2061258,258.247112 28.8151258,254.806112 C25.0111258,252.379112 20.5541258,250.606112 16.2431258,248.892112 C12.0441258,247.222112 7.70112579,245.495112 3.79712579,243.124112 C1.64512579,241.817112 0.275125788,239.635112 0.0371257878,237.137112 C-0.207874212,234.559112 0.768125788,232.067112 2.71612579,230.305112 C8.09712579,225.365112 5.54112579,217.691112 3.28612579,210.919112 C2.94612579,209.900112 2.61612579,208.908112 2.32312579,207.959112 C1.04712579,203.822112 0.385125788,195.707112 4.03612579,191.539112 C5.31412579,190.082112 7.67312579,188.483112 11.6661258,189.160112 C17.2371258,190.102112 20.1421258,195.038112 22.7051258,199.393112 C23.5121258,200.765112 24.2751258,202.060112 25.0591258,203.121112 C30.2061258,210.085112 35.8721258,209.311112 44.5241258,205.442112 C51.1751258,202.469112 60.8871258,201.136112 67.5901258,204.863112 C71.5111258,207.042112 73.9311258,210.739112 74.5891258,215.554112 C75.1311258,219.522112 74.7301258,223.261112 74.3421258,226.877112 C73.7911258,232.013112 73.2711258,236.864112 75.5381258,241.853112 C77.0171258,245.108112 79.1551258,248.095112 81.4181258,251.257112 C85.1691258,256.497112 89.0471258,261.916112 89.8211258,268.771112 C90.4961258,274.748112 88.3681258,279.719112 83.8281258,282.766112 C80.6721258,284.884112 76.4671258,285.947112 72.1261258,285.947112 Z" id="Fill-1"></path>
                    <polygon id="Fill-1" points="382.13 241.33 397.595 256.796 404.26 250.132 382.13 228 360 250.132 366.665 256.796"></polygon>
                    <g id="Group-3" transform="translate(138.000000, 0.000000)">
                        <path d="M91.219,17.793 C95.388,29.075 92.325,40.741 100.033,50.9918 C107.623,61.0878 120.647,67.4538 124.925,79.9198 C131.292,98.4718 109.154,106.7818 94.779,102.6058 C77.328,97.5368 65.192,82.3258 48.24,76.1408 C37.295,72.1478 24.739,72.2048 13.74,68.4668 C8.831,66.7988 7.109,60.8998 10.109,56.6708 L10.169,56.5848 C17.296,46.3868 8.577,34.95 3.573,26.156 C0.08,20.017 -3.915,4.539 7.939,3.934 C16.041,3.521 21.353,12.368 26.702,17.023 C36.798,25.808 45.335,21.71 54.833,14.66 C65.404,6.813 85.236,1.597 91.219,17.793 Z" id="Fill-1"></path>
                        <path d="M100.28,57.9618 C97.697,69.7078 88.82,77.8728 89.773,90.6638 C90.71,103.2608 98.235,115.6498 95.105,128.4528 C90.447,147.5068 67.327,142.5478 57.482,131.2708 C45.53,117.5808 43.528,98.2248 32.599,83.8668 C25.543,74.5958 14.944,67.8628 7.704,58.7778 C4.473,54.7228 6.209,48.8288 11.017,46.8888 L11.114,46.8488 C22.62,42.1138 21.456,27.78 21.993,17.677 C22.368,10.623 27.362,-4.563 37.667,1.33 C44.709,5.356 44.403,15.671 46.392,22.477 C50.146,35.323 59.544,36.483 71.345,35.678 C84.48,34.781 103.989,41.099 100.28,57.9618 Z" id="Fill-2" fill-opacity="0.2"></path>
                    </g>
                    <g id="Group-149" transform="translate(182.000000, 103.000000)">
                        <g id="Group-4" transform="translate(97.000000, 0.000000)">
                            <path d="M46.3985623,31.8834893 C46.0145623,31.3794893 45.2945623,31.2814893 44.7905623,31.6654893 C44.2855623,32.0494893 44.1875623,32.7694893 44.5715623,33.2734893 C44.9545623,33.7774893 45.6755623,33.8754893 46.1795623,33.4914893 C46.6845623,33.1084893 46.7815623,32.3874893 46.3985623,31.8834893 Z" id="Fill-1"></path>
                            <path d="M47.1265623,26.5244893 C46.7425623,26.0194893 46.0225623,25.9214893 45.5195623,26.3044893 C45.0145623,26.6884893 44.9175623,27.4084893 45.3005623,27.9124893 C45.6845623,28.4174893 46.4045623,28.5154893 46.9085623,28.1314893 C47.4125623,27.7484893 47.5095623,27.0284893 47.1265623,26.5244893 Z" id="Fill-2"></path>
                            <path d="M41.7675623,25.7954893 C41.6235623,25.6064893 41.4325623,25.4734893 41.2225623,25.4034893 C40.8735623,25.2844893 40.4745623,25.3364893 40.1595623,25.5764893 C39.8435623,25.8164893 39.6875623,26.1874893 39.7075623,26.5554893 C39.7195623,26.7764893 39.7955623,26.9954893 39.9395623,27.1854893 C40.1795623,27.4994893 40.5505623,27.6564893 40.9185623,27.6354893 C41.1395623,27.6234893 41.3585623,27.5474893 41.5485623,27.4034893 C41.7375623,27.2584893 41.8695623,27.0674893 41.9395623,26.8584893 C42.0585623,26.5094893 42.0065623,26.1104893 41.7675623,25.7954893 Z" id="Fill-3"></path>
                            <path d="M47.8555623,21.1634893 C47.7115623,20.9744893 47.5205623,20.8424893 47.3115623,20.7714893 C46.9625623,20.6534893 46.5635623,20.7054893 46.2475623,20.9454893 C45.9325623,21.1854893 45.7755623,21.5564893 45.7965623,21.9244893 C45.8095623,22.1444893 45.8855623,22.3634893 46.0295623,22.5534893 C46.2685623,22.8684893 46.6395623,23.0244893 47.0075623,23.0044893 C47.2285623,22.9914893 47.4475623,22.9154893 47.6365623,22.7714893 C47.8265623,22.6274893 47.9585623,22.4364893 48.0285623,22.2274893 C48.1475623,21.8784893 48.0955623,21.4784893 47.8555623,21.1634893 Z" id="Fill-4"></path>
                            <path d="M40.3095623,36.5154893 C39.9255623,36.0104893 39.2065623,35.9124893 38.7015623,36.2964893 C38.1965623,36.6804893 38.0995623,37.4004893 38.4825623,37.9044893 C38.8665623,38.4084893 39.5865623,38.5074893 40.0905623,38.1234893 C40.5955623,37.7394893 40.6925623,37.0194893 40.3095623,36.5154893 Z" id="Fill-5"></path>
                            <path d="M34.9495623,35.7864893 C34.5655623,35.2824893 33.8455623,35.1844893 33.3415623,35.5674893 C32.8375623,35.9514893 32.7395623,36.6714893 33.1235623,37.1754893 C33.5065623,37.6794893 34.2265623,37.7784893 34.7315623,37.3944893 C35.2345623,37.0104893 35.3325623,36.2914893 34.9495623,35.7864893 Z" id="Fill-6"></path>
                            <path d="M41.0375623,31.1554893 C40.6535623,30.6514893 39.9345623,30.5524893 39.4295623,30.9364893 C38.9255623,31.3204893 38.8285623,32.0394893 39.2115623,32.5444893 C39.5955623,33.0484893 40.3155623,33.1464893 40.8195623,32.7634893 C41.3235623,32.3794893 41.4215623,31.6594893 41.0375623,31.1554893 Z" id="Fill-7"></path>
                            <path d="M45.6695623,37.2444893 C45.2855623,36.7394893 44.5655623,36.6414893 44.0615623,37.0254893 C43.5575623,37.4084893 43.4595623,38.1284893 43.8435623,38.6334893 C44.2265623,39.1364893 44.9465623,39.2354893 45.4505623,38.8524893 C45.9555623,38.4684893 46.0525623,37.7474893 45.6695623,37.2444893 Z" id="Fill-8"></path>
                            <path d="M29.5895623,35.0584893 C29.4455623,34.8684893 29.2545623,34.7374893 29.0445623,34.6664893 C28.6965623,34.5484893 28.2965623,34.5994893 27.9815623,34.8394893 C27.6665623,35.0794893 27.5095623,35.4504893 27.5295623,35.8184893 C27.5425623,36.0394893 27.6185623,36.2584893 27.7625623,36.4474893 C28.0015623,36.7624893 28.3735623,36.9194893 28.7415623,36.8984893 C28.9615623,36.8854893 29.1815623,36.8094893 29.3705623,36.6654893 C29.5595623,36.5214893 29.6915623,36.3304893 29.7625623,36.1214893 C29.8805623,35.7724893 29.8295623,35.3724893 29.5895623,35.0584893 Z" id="Fill-9"></path>
                            <path d="M35.6785623,30.4264893 C35.5345623,30.2374893 35.3435623,30.1054893 35.1335623,30.0344893 C34.7855623,29.9164893 34.3855623,29.9674893 34.0705623,30.2084893 C33.7545623,30.4474893 33.5985623,30.8194893 33.6195623,31.1864893 C33.6315623,31.4074893 33.7075623,31.6274893 33.8515623,31.8164893 C34.0905623,32.1314893 34.4615623,32.2874893 34.8305623,32.2664893 C35.0505623,32.2544893 35.2705623,32.1784893 35.4595623,32.0344893 C35.6485623,31.8904893 35.7805623,31.6994893 35.8515623,31.4894893 C35.9695623,31.1404893 35.9185623,30.7414893 35.6785623,30.4264893 Z" id="Fill-10"></path>
                            <path d="M61.4905623,1.18048932 C61.1065623,0.676489319 60.3875623,0.578489319 59.8825623,0.962489319 C59.3775623,1.34548932 59.2795623,2.06648932 59.6635623,2.57048932 C60.0465623,3.07448932 60.7675623,3.17248932 61.2725623,2.78848932 C61.7765623,2.40448932 61.8745623,1.68548932 61.4905623,1.18048932 Z" id="Fill-11"></path>
                            <path d="M66.8505623,1.90948932 C66.4665623,1.40548932 65.7465623,1.30748932 65.2435623,1.69048932 C64.7385623,2.07448932 64.6405623,2.79448932 65.0245623,3.29848932 C65.4075623,3.80248932 66.1275623,3.90148932 66.6325623,3.51748932 C67.1365623,3.13348932 67.2335623,2.41348932 66.8505623,1.90948932 Z" id="Fill-12"></path>
                            <path d="M49.3135623,10.4434893 C48.9295623,9.93948932 48.2095623,9.84148932 47.7055623,10.2254893 C47.2005623,10.6094893 47.1025623,11.3284893 47.4855623,11.8334893 C47.8695623,12.3374893 48.5895623,12.4354893 49.0945623,12.0514893 C49.5995623,11.6684893 49.6965623,10.9474893 49.3135623,10.4434893 Z" id="Fill-13"></path>
                            <path d="M55.4015623,5.81248932 C55.0185623,5.30748932 54.2985623,5.20948932 53.7935623,5.59348932 C53.2895623,5.97748932 53.1915623,6.69648932 53.5755623,7.20148932 C53.9585623,7.70548932 54.6785623,7.80448932 55.1835623,7.42048932 C55.6885623,7.03648932 55.7855623,6.31648932 55.4015623,5.81248932 Z" id="Fill-14"></path>
                            <path d="M50.0415623,5.08448932 C49.6575623,4.57948932 48.9385623,4.48148932 48.4345623,4.86448932 C47.9295623,5.24848932 47.8315623,5.96848932 48.2155623,6.47248932 C48.5995623,6.97648932 49.3185623,7.07548932 49.8235623,6.69148932 C50.3275623,6.30848932 50.4245623,5.58848932 50.0415623,5.08448932 Z" id="Fill-15"></path>
                            <path d="M56.1305623,0.452489319 C55.7465623,-0.0515106808 55.0265623,-0.149510681 54.5225623,0.234489319 C54.0185623,0.616489319 53.9205623,1.33648932 54.3045623,1.84148932 C54.6885623,2.34548932 55.4075623,2.44348932 55.9115623,2.06048932 C56.4165623,1.67648932 56.5135623,0.956489319 56.1305623,0.452489319 Z" id="Fill-16"></path>
                            <path d="M60.7615623,6.54148932 C60.3775623,6.03648932 59.6585623,5.93848932 59.1535623,6.32248932 C58.6495623,6.70548932 58.5515623,7.42548932 58.9355623,7.93048932 C59.3185623,8.43348932 60.0395623,8.53248932 60.5435623,8.14948932 C61.0475623,7.76548932 61.1445623,7.04548932 60.7615623,6.54148932 Z" id="Fill-17"></path>
                            <path d="M44.6825623,4.35548932 C44.5385623,4.16548932 44.3465623,4.03348932 44.1375623,3.96348932 C43.7885623,3.84448932 43.3895623,3.89648932 43.0735623,4.13648932 C42.7585623,4.37648932 42.6025623,4.74748932 42.6225623,5.11548932 C42.6345623,5.33648932 42.7105623,5.55548932 42.8555623,5.74448932 C43.0465623,5.99648932 43.3225623,6.14748932 43.6135623,6.18648932 C43.9045623,6.22648932 44.2105623,6.15448932 44.4625623,5.96348932 C44.7155623,5.77048932 44.8655623,5.49448932 44.9055623,5.20348932 C44.9445623,4.91248932 44.8735623,4.60748932 44.6825623,4.35548932 Z" id="Fill-18"></path>
                            <path d="M37.1355623,19.7064893 C36.7515623,19.2014893 36.0325623,19.1044893 35.5275623,19.4874893 C35.0225623,19.8714893 34.9245623,20.5924893 35.3085623,21.0964893 C35.6915623,21.6004893 36.4125623,21.6984893 36.9175623,21.3144893 C37.4215623,20.9304893 37.5195623,20.2104893 37.1355623,19.7064893 Z" id="Fill-19"></path>
                            <path d="M43.2245623,15.0744893 C42.8405623,14.5704893 42.1215623,14.4724893 41.6165623,14.8564893 C41.1115623,15.2404893 41.0135623,15.9604893 41.3975623,16.4644893 C41.7815623,16.9684893 42.5015623,17.0674893 43.0055623,16.6834893 C43.5105623,16.2994893 43.6075623,15.5794893 43.2245623,15.0744893 Z" id="Fill-20"></path>
                            <path d="M37.8635623,14.3464893 C37.4805623,13.8424893 36.7605623,13.7444893 36.2565623,14.1274893 C35.7515623,14.5114893 35.6545623,15.2314893 36.0385623,15.7354893 C36.4215623,16.2394893 37.1415623,16.3384893 37.6465623,15.9544893 C38.1495623,15.5714893 38.2475623,14.8504893 37.8635623,14.3464893 Z" id="Fill-21"></path>
                            <path d="M42.4955623,20.4354893 C42.1115623,19.9304893 41.3915623,19.8334893 40.8885623,20.2164893 C40.3835623,20.6004893 40.2855623,21.3204893 40.6695623,21.8244893 C41.0525623,22.3284893 41.7725623,22.4264893 42.2775623,22.0434893 C42.7815623,21.6594893 42.8785623,20.9394893 42.4955623,20.4354893 Z" id="Fill-22"></path>
                            <path d="M43.9525623,9.71548932 C43.5685623,9.21048932 42.8495623,9.11248932 42.3445623,9.49648932 C41.8405623,9.88048932 41.7435623,10.5994893 42.1265623,11.1044893 C42.5105623,11.6084893 43.2305623,11.7064893 43.7335623,11.3234893 C44.2385623,10.9394893 44.3355623,10.2194893 43.9525623,9.71548932 Z" id="Fill-23"></path>
                            <path d="M48.5845623,15.8034893 C48.2005623,15.2994893 47.4805623,15.2014893 46.9765623,15.5854893 C46.4725623,15.9684893 46.3745623,16.6884893 46.7585623,17.1934893 C47.1415623,17.6964893 47.8615623,17.7954893 48.3655623,17.4124893 C48.8705623,17.0284893 48.9675623,16.3074893 48.5845623,15.8034893 Z" id="Fill-24"></path>
                            <path d="M32.5045623,13.6174893 C32.3605623,13.4284893 32.1695623,13.2964893 31.9595623,13.2254893 C31.6105623,13.1074893 31.2115623,13.1594893 30.8965623,13.3994893 C30.5815623,13.6394893 30.4245623,14.0104893 30.4445623,14.3784893 C30.4575623,14.5984893 30.5335623,14.8184893 30.6775623,15.0084893 C30.8685623,15.2594893 31.1445623,15.4094893 31.4365623,15.4494893 C31.7275623,15.4884893 32.0335623,15.4174893 32.2855623,15.2254893 C32.5375623,15.0334893 32.6885623,14.7584893 32.7285623,14.4674893 C32.7675623,14.1754893 32.6955623,13.8694893 32.5045623,13.6174893 Z" id="Fill-25"></path>
                            <path d="M38.5935623,8.98648932 C38.4495623,8.79748932 38.2585623,8.66548932 38.0485623,8.59448932 C37.6995623,8.47648932 37.3005623,8.52848932 36.9845623,8.76748932 C36.6695623,9.00848932 36.5135623,9.37948932 36.5335623,9.74648932 C36.5465623,9.96748932 36.6225623,10.1864893 36.7665623,10.3764893 C36.9585623,10.6284893 37.2335623,10.7784893 37.5245623,10.8184893 C37.8155623,10.8574893 38.1225623,10.7864893 38.3745623,10.5944893 C38.6265623,10.4024893 38.7765623,10.1264893 38.8165623,9.83548932 C38.8555623,9.54448932 38.7845623,9.23848932 38.5935623,8.98648932 Z" id="Fill-26"></path>
                            <path d="M24.9585623,28.9694893 C24.5745623,28.4644893 23.8545623,28.3664893 23.3505623,28.7504893 C22.8455623,29.1344893 22.7475623,29.8544893 23.1305623,30.3594893 C23.5145623,30.8634893 24.2345623,30.9614893 24.7395623,30.5774893 C25.2445623,30.1934893 25.3415623,29.4734893 24.9585623,28.9694893 Z" id="Fill-27"></path>
                            <path d="M31.0465623,24.3384893 C30.6635623,23.8334893 29.9435623,23.7354893 29.4385623,24.1194893 C28.9345623,24.5034893 28.8365623,25.2224893 29.2205623,25.7274893 C29.6035623,26.2314893 30.3235623,26.3294893 30.8285623,25.9464893 C31.3335623,25.5624893 31.4305623,24.8424893 31.0465623,24.3384893 Z" id="Fill-28"></path>
                            <path d="M25.6865623,23.6094893 C25.3025623,23.1054893 24.5835623,23.0074893 24.0795623,23.3904893 C23.5745623,23.7744893 23.4765623,24.4934893 23.8605623,24.9984893 C24.2445623,25.5024893 24.9635623,25.6004893 25.4685623,25.2174893 C25.9725623,24.8334893 26.0695623,24.1134893 25.6865623,23.6094893 Z" id="Fill-29"></path>
                            <path d="M30.3175623,29.6984893 C29.9345623,29.1934893 29.2145623,29.0954893 28.7105623,29.4794893 C28.2065623,29.8624893 28.1075623,30.5824893 28.4915623,31.0874893 C28.8755623,31.5914893 29.5955623,31.6894893 30.1005623,31.3054893 C30.6045623,30.9224893 30.7015623,30.2014893 30.3175623,29.6984893 Z" id="Fill-30"></path>
                            <path d="M31.7745623,18.9784893 C31.3915623,18.4734893 30.6715623,18.3754893 30.1675623,18.7594893 C29.6635623,19.1424893 29.5655623,19.8624893 29.9495623,20.3664893 C30.3325623,20.8714893 31.0525623,20.9694893 31.5565623,20.5864893 C32.0615623,20.2024893 32.1585623,19.4824893 31.7745623,18.9784893 Z" id="Fill-31"></path>
                            <path d="M36.4065623,25.0674893 C36.0225623,24.5624893 35.3035623,24.4644893 34.7985623,24.8484893 C34.2945623,25.2314893 34.1965623,25.9514893 34.5805623,26.4554893 C34.9635623,26.9594893 35.6845623,27.0584893 36.1885623,26.6754893 C36.6925623,26.2914893 36.7895623,25.5704893 36.4065623,25.0674893 Z" id="Fill-32"></path>
                            <path d="M20.3265623,22.8804893 C20.1835623,22.6914893 19.9915623,22.5594893 19.7825623,22.4884893 C19.4335623,22.3704893 19.0345623,22.4224893 18.7185623,22.6624893 C18.4035623,22.9024893 18.2475623,23.2734893 18.2675623,23.6414893 C18.2795623,23.8624893 18.3555623,24.0814893 18.5005623,24.2704893 C18.6915623,24.5224893 18.9675623,24.6734893 19.2585623,24.7124893 C19.5495623,24.7514893 19.8555623,24.6804893 20.1075623,24.4884893 C20.3605623,24.2964893 20.5105623,24.0204893 20.5505623,23.7294893 C20.5895623,23.4384893 20.5185623,23.1324893 20.3265623,22.8804893 Z" id="Fill-33"></path>
                            <path d="M26.4155623,18.2494893 C26.2715623,18.0604893 26.0805623,17.9274893 25.8715623,17.8574893 C25.5225623,17.7384893 25.1235623,17.7904893 24.8075623,18.0304893 C24.4925623,18.2704893 24.3355623,18.6414893 24.3565623,19.0094893 C24.3685623,19.2304893 24.4445623,19.4494893 24.5885623,19.6384893 C24.7805623,19.8904893 25.0565623,20.0414893 25.3475623,20.0804893 C25.6385623,20.1204893 25.9445623,20.0494893 26.1965623,19.8574893 C26.4495623,19.6654893 26.5995623,19.3894893 26.6395623,19.0984893 C26.6785623,18.8074893 26.6075623,18.5014893 26.4155623,18.2494893 Z" id="Fill-34"></path>
                            <path d="M12.7808623,38.2324893 C12.3978623,37.7274893 11.6778623,37.6294893 11.1728623,38.0134893 C10.6688623,38.3974893 10.5698623,39.1174893 10.9538623,39.6214893 C11.3368623,40.1264893 12.0578623,40.2234893 12.5628623,39.8404893 C13.0668623,39.4564893 13.1648623,38.7364893 12.7808623,38.2324893 Z" id="Fill-35"></path>
                            <path d="M18.8695623,33.6004893 C18.4855623,33.0964893 17.7655623,32.9984893 17.2615623,33.3824893 C16.7565623,33.7654893 16.6585623,34.4854893 17.0425623,34.9904893 C17.4265623,35.4944893 18.1465623,35.5924893 18.6505623,35.2084893 C19.1555623,34.8244893 19.2525623,34.1044893 18.8695623,33.6004893 Z" id="Fill-36"></path>
                            <path d="M13.5088623,32.8724893 C13.1258623,32.3674893 12.4058623,32.2704893 11.9018623,32.6534893 C11.3978623,33.0364893 11.2998623,33.7564893 11.6838623,34.2614893 C12.0668623,34.7654893 12.7868623,34.8634893 13.2918623,34.4794893 C13.7945623,34.0964893 13.8925623,33.3764893 13.5088623,32.8724893 Z" id="Fill-37"></path>
                            <path d="M19.5975623,28.2404893 C19.2135623,27.7364893 18.4945623,27.6384893 17.9895623,28.0224893 C17.4855623,28.4054893 17.3885623,29.1254893 17.7725623,29.6294893 C18.1555623,30.1334893 18.8755623,30.2324893 19.3785623,29.8484893 C19.8835623,29.4654893 19.9805623,28.7454893 19.5975623,28.2404893 Z" id="Fill-38"></path>
                            <path d="M24.2295623,34.3294893 C23.8455623,33.8254893 23.1255623,33.7274893 22.6215623,34.1114893 C22.1175623,34.4944893 22.0195623,35.2144893 22.4035623,35.7184893 C22.7865623,36.2224893 23.5065623,36.3214893 24.0105623,35.9374893 C24.5155623,35.5534893 24.6125623,34.8334893 24.2295623,34.3294893 Z" id="Fill-39"></path>
                            <path d="M8.14986227,32.1434893 C8.00586227,31.9544893 7.81486227,31.8224893 7.60586227,31.7514893 C7.25586227,31.6334893 6.85686227,31.6854893 6.54186227,31.9254893 C6.22686227,32.1644893 6.06986227,32.5364893 6.08986227,32.9044893 C6.10286227,33.1244893 6.17886227,33.3434893 6.32286227,33.5334893 C6.51386227,33.7854893 6.78986227,33.9354893 7.08186227,33.9754893 C7.37286227,34.0144893 7.67886227,33.9434893 7.93086227,33.7514893 C8.18286227,33.5594893 8.33386227,33.2834893 8.37386227,32.9924893 C8.41286227,32.7014893 8.34086227,32.3954893 8.14986227,32.1434893 Z" id="Fill-40"></path>
                            <path d="M14.2385623,27.5124893 C14.0945623,27.3224893 13.9025623,27.1914893 13.6938623,27.1204893 C13.3448623,27.0024893 12.9458623,27.0534893 12.6298623,27.2934893 C12.3148623,27.5334893 12.1588623,27.9044893 12.1788623,28.2724893 C12.1918623,28.4924893 12.2678623,28.7124893 12.4118623,28.9014893 C12.6038623,29.1534893 12.8788623,29.3034893 13.1698623,29.3434893 C13.4608623,29.3834893 13.7678623,29.3114893 14.0195623,29.1194893 C14.2715623,28.9274893 14.4215623,28.6524893 14.4615623,28.3614893 C14.5015623,28.0704893 14.4295623,27.7634893 14.2385623,27.5124893 Z" id="Fill-41"></path>
                            <path d="M7.41986227,37.5034893 C7.03686227,36.9994893 6.31686227,36.9014893 5.81286227,37.2854893 C5.30886227,37.6684893 5.21086227,38.3874893 5.59486227,38.8924893 C5.97786227,39.3964893 6.69786227,39.4944893 7.20186227,39.1124893 C7.70686227,38.7284893 7.80386227,38.0084893 7.41986227,37.5034893 Z" id="Fill-42"></path>
                            <path d="M2.06086227,36.7754893 C1.91686227,36.5854893 1.72586227,36.4534893 1.51686227,36.3834893 C1.16786227,36.2644893 0.768862272,36.3164893 0.452862272,36.5564893 C0.137862272,36.7964893 -0.0191377282,37.1674893 0.00186227184,37.5354893 C0.0138622718,37.7554893 0.0898622718,37.9754893 0.233862272,38.1644893 C0.425862272,38.4164893 0.701862272,38.5674893 0.992862272,38.6064893 C1.28386227,38.6464893 1.58986227,38.5744893 1.84186227,38.3824893 C2.09486227,38.1904893 2.24486227,37.9144893 2.28486227,37.6234893 C2.32386227,37.3324893 2.25286227,37.0274893 2.06086227,36.7754893 Z" id="Fill-43"></path>
                            <path d="M27.8735623,7.52948932 C27.4895623,7.02448932 26.7695623,6.92648932 26.2655623,7.31048932 C25.7605623,7.69448932 25.6625623,8.41448932 26.0455623,8.91948932 C26.4295623,9.42348932 27.1495623,9.52148932 27.6545623,9.13748932 C28.1595623,8.75348932 28.2565623,8.03348932 27.8735623,7.52948932 Z" id="Fill-44"></path>
                            <path d="M33.9615623,2.89748932 C33.5785623,2.39348932 32.8585623,2.29548932 32.3535623,2.67948932 C31.8495623,3.06348932 31.7515623,3.78248932 32.1355623,4.28748932 C32.5185623,4.79148932 33.2385623,4.88948932 33.7435623,4.50648932 C34.2475623,4.12248932 34.3455623,3.40248932 33.9615623,2.89748932 Z" id="Fill-45"></path>
                            <path d="M33.2325623,8.25848932 C32.8485623,7.75348932 32.1285623,7.65548932 31.6255623,8.03848932 C31.1205623,8.42248932 31.0225623,9.14248932 31.4065623,9.64748932 C31.7905623,10.1504893 32.5105623,10.2494893 33.0145623,9.86548932 C33.5185623,9.48248932 33.6155623,8.76148932 33.2325623,8.25848932 Z" id="Fill-46"></path>
                            <path d="M39.3215623,3.62648932 C38.9375623,3.12248932 38.2175623,3.02448932 37.7135623,3.40848932 C37.2095623,3.79148932 37.1115623,4.51048932 37.4955623,5.01548932 C37.8785623,5.51948932 38.5995623,5.61748932 39.1035623,5.23548932 C39.6075623,4.85148932 39.7045623,4.13048932 39.3215623,3.62648932 Z" id="Fill-47"></path>
                            <path d="M15.6955623,16.7924893 C15.3115623,16.2874893 14.5915623,16.1894893 14.0875623,16.5734893 C13.5838623,16.9574893 13.4848623,17.6774893 13.8685623,18.1814893 C14.2515623,18.6854893 14.9725623,18.7834893 15.4775623,18.4004893 C15.9815623,18.0164893 16.0795623,17.2964893 15.6955623,16.7924893 Z" id="Fill-48"></path>
                            <path d="M21.7845623,12.1604893 C21.4005623,11.6554893 20.6805623,11.5584893 20.1765623,11.9424893 C19.6715623,12.3254893 19.5735623,13.0454893 19.9575623,13.5504893 C20.3405623,14.0544893 21.0615623,14.1524893 21.5655623,13.7684893 C22.0705623,13.3844893 22.1675623,12.6644893 21.7845623,12.1604893 Z" id="Fill-49"></path>
                            <path d="M21.0555623,17.5214893 C20.6715623,17.0164893 19.9515623,16.9184893 19.4475623,17.3014893 C18.9435623,17.6854893 18.8455623,18.4054893 19.2295623,18.9094893 C19.6125623,19.4134893 20.3335623,19.5124893 20.8375623,19.1284893 C21.3415623,18.7454893 21.4385623,18.0244893 21.0555623,17.5214893 Z" id="Fill-50"></path>
                            <path d="M27.1445623,12.8894893 C26.7605623,12.3844893 26.0405623,12.2874893 25.5355623,12.6714893 C25.0325623,13.0544893 24.9345623,13.7744893 25.3175623,14.2784893 C25.7015623,14.7824893 26.4215623,14.8814893 26.9255623,14.4974893 C27.4295623,14.1134893 27.5265623,13.3934893 27.1445623,12.8894893 Z" id="Fill-51"></path>
                            <path d="M3.51886227,26.0544893 C3.13486227,25.5504893 2.41486227,25.4524893 1.90986227,25.8364893 C1.40586227,26.2194893 1.30786227,26.9404893 1.69086227,27.4444893 C2.07486227,27.9484893 2.79486227,28.0464893 3.29986227,27.6624893 C3.80386227,27.2794893 3.90186227,26.5584893 3.51886227,26.0544893 Z" id="Fill-52"></path>
                            <path d="M9.60686227,21.4234893 C9.22386227,20.9184893 8.50386227,20.8214893 7.99886227,21.2044893 C7.49486227,21.5884893 7.39686227,22.3084893 7.77986227,22.8134893 C8.16386227,23.3174893 8.88386227,23.4154893 9.38886227,23.0314893 C9.89286227,22.6474893 9.99086227,21.9274893 9.60686227,21.4234893 Z" id="Fill-53"></path>
                            <path d="M8.87786227,26.7834893 C8.49386227,26.2794893 7.77386227,26.1814893 7.27086227,26.5644893 C6.76586227,26.9484893 6.66886227,27.6684893 7.05186227,28.1724893 C7.43586227,28.6764893 8.15586227,28.7754893 8.65986227,28.3914893 C9.16386227,28.0084893 9.26086227,27.2874893 8.87786227,26.7834893 Z" id="Fill-54"></path>
                            <path d="M14.9665623,22.1524893 C14.5825623,21.6474893 13.8625623,21.5504893 13.3588623,21.9334893 C12.8548623,22.3174893 12.7568623,23.0364893 13.1408623,23.5414893 C13.5238623,24.0454893 14.2445623,24.1434893 14.7485623,23.7604893 C15.2525623,23.3764893 15.3495623,22.6554893 14.9665623,22.1524893 Z" id="Fill-55"></path>
                            <path d="M2.78986227,31.4154893 C2.40586227,30.9104893 1.68586227,30.8124893 1.18086227,31.1964893 C0.677862272,31.5794893 0.579862272,32.2994893 0.962862272,32.8034893 C1.34686227,33.3074893 2.06686227,33.4064893 2.57086227,33.0234893 C3.07486227,32.6394893 3.17186227,31.9194893 2.78986227,31.4154893 Z" id="Fill-56"></path>
                        </g>
                        <g id="Group-2" transform="translate(60.000000, 65.000000)">
                            <path d="M30.4995646,43.123 C30.7155646,42.525 30.4055646,41.866 29.8075646,41.65 C29.2105646,41.434 28.5505646,41.743 28.3345646,42.341 C28.1185646,42.939 28.4285646,43.598 29.0265646,43.814 C29.6245646,44.03 30.2835646,43.72 30.4995646,43.123 Z" id="Fill-57"></path>
                            <path d="M35.4095646,40.817 C35.6255646,40.219 35.3155646,39.559 34.7185646,39.344 C34.1205646,39.128 33.4615646,39.438 33.2455646,40.036 C33.0305646,40.633 33.3395646,41.293 33.9375646,41.509 C34.5345646,41.724 35.1945646,41.414 35.4095646,40.817 Z" id="Fill-58"></path>
                            <path d="M33.1045646,35.907 C33.1855646,35.683 33.1925646,35.45 33.1375646,35.235 C33.0475646,34.877 32.7865646,34.569 32.4125646,34.434 C32.0385646,34.299 31.6405646,34.369 31.3425646,34.587 C31.1635646,34.718 31.0195646,34.901 30.9385646,35.125 C30.8035646,35.498 30.8745646,35.896 31.0925646,36.195 C31.2235646,36.374 31.4065646,36.517 31.6315646,36.598 C31.8555646,36.679 32.0885646,36.686 32.3035646,36.632 C32.6615646,36.541 32.9695646,36.28 33.1045646,35.907 Z" id="Fill-59"></path>
                            <path d="M40.3205646,38.512 C40.4015646,38.287 40.4085646,38.054 40.3535646,37.84 C40.2635646,37.481 40.0025646,37.173 39.6285646,37.038 C39.2545646,36.904 38.8575646,36.974 38.5585646,37.192 C38.3795646,37.322 38.2365646,37.506 38.1555646,37.73 C38.0205646,38.103 38.0915646,38.501 38.3085646,38.799 C38.4395646,38.978 38.6225646,39.122 38.8475646,39.203 C39.0715646,39.283 39.3045646,39.291 39.5195646,39.236 C39.8775646,39.146 40.1855646,38.885 40.3205646,38.512 Z" id="Fill-60"></path>
                            <path d="M23.2835646,40.518 C23.4995646,39.92 23.1905646,39.261 22.5925646,39.045 C21.9935646,38.829 21.3345646,39.139 21.1185646,39.737 C20.9035646,40.334 21.2125646,40.994 21.8105646,41.21 C22.4085646,41.426 23.0685646,41.116 23.2835646,40.518 Z" id="Fill-61"></path>
                            <path d="M20.9775646,35.608 C21.1935646,35.01 20.8835646,34.35 20.2865646,34.135 C19.6885646,33.919 19.0295646,34.229 18.8135646,34.826 C18.5975646,35.424 18.9075646,36.084 19.5055646,36.3 C20.1025646,36.515 20.7615646,36.205 20.9775646,35.608 Z" id="Fill-62"></path>
                            <path d="M28.1935646,38.212 C28.4095646,37.614 28.0995646,36.955 27.5015646,36.739 C26.9055646,36.524 26.2455646,36.833 26.0295646,37.431 C25.8145646,38.029 26.1235646,38.689 26.7205646,38.904 C27.3185646,39.12 27.9775646,38.81 28.1935646,38.212 Z" id="Fill-63"></path>
                            <path d="M25.5895646,45.429 C25.8045646,44.83 25.4955646,44.171 24.8975646,43.955 C24.3005646,43.74 23.6405646,44.049 23.4255646,44.647 C23.2095646,45.244 23.5185646,45.905 24.1155646,46.12 C24.7135646,46.336 25.3735646,46.025 25.5895646,45.429 Z" id="Fill-64"></path>
                            <path d="M18.6725646,30.698 C18.7535646,30.473 18.7595646,30.241 18.7055646,30.026 C18.6155646,29.668 18.3545646,29.36 17.9805646,29.225 C17.6065646,29.09 17.2085646,29.16 16.9105646,29.378 C16.7315646,29.509 16.5875646,29.692 16.5075646,29.916 C16.3725646,30.289 16.4425646,30.687 16.6605646,30.986 C16.7915646,31.165 16.9745646,31.308 17.1995646,31.389 C17.4235646,31.47 17.6565646,31.477 17.8715646,31.423 C18.2295646,31.332 18.5375646,31.071 18.6725646,30.698 Z" id="Fill-65"></path>
                            <path d="M25.8885646,33.303 C25.9685646,33.078 25.9765646,32.846 25.9215646,32.631 C25.8315646,32.272 25.5705646,31.964 25.1965646,31.829 C24.8225646,31.695 24.4255646,31.765 24.1265646,31.982 C23.9475646,32.113 23.8045646,32.297 23.7235646,32.521 C23.5885646,32.894 23.6585646,33.292 23.8765646,33.59 C24.0075646,33.769 24.1915646,33.913 24.4155646,33.993 C24.6395646,34.075 24.8725646,34.081 25.0875646,34.027 C25.4455646,33.937 25.7535646,33.676 25.8885646,33.303 Z" id="Fill-66"></path>
                            <path d="M35.7085646,28.691 C35.9245646,28.093 35.6145646,27.434 35.0165646,27.218 C34.4195646,27.002 33.7595646,27.311 33.5435646,27.909 C33.3275646,28.507 33.6375646,29.167 34.2355646,29.383 C34.8335646,29.598 35.4925646,29.288 35.7085646,28.691 Z" id="Fill-67"></path>
                            <path d="M42.9245646,31.296 C43.1405646,30.698 42.8305646,30.038 42.2335646,29.823 C41.6345646,29.607 40.9755646,29.916 40.7595646,30.514 C40.5445646,31.112 40.8535646,31.771 41.4515646,31.987 C42.0495646,32.203 42.7095646,31.893 42.9245646,31.296 Z" id="Fill-68"></path>
                            <path d="M40.6185646,26.385 C40.8345646,25.787 40.5245646,25.128 39.9275646,24.912 C39.3295646,24.697 38.6705646,25.006 38.4545646,25.604 C38.2385646,26.201 38.5485646,26.861 39.1465646,27.077 C39.7435646,27.293 40.4035646,26.983 40.6185646,26.385 Z" id="Fill-69"></path>
                            <path d="M38.0135646,33.601 C38.2295646,33.003 37.9205646,32.344 37.3225646,32.128 C36.7255646,31.912 36.0655646,32.222 35.8495646,32.82 C35.6345646,33.417 35.9435646,34.077 36.5415646,34.293 C37.1385646,34.509 37.7985646,34.198 38.0135646,33.601 Z" id="Fill-70"></path>
                            <path d="M45.2295646,36.205 C45.4465646,35.608 45.1355646,34.948 44.5385646,34.732 C43.9415646,34.517 43.2815646,34.826 43.0665646,35.425 C42.8505646,36.022 43.1595646,36.682 43.7575646,36.897 C44.3545646,37.113 45.0145646,36.803 45.2295646,36.205 Z" id="Fill-71"></path>
                            <path d="M38.3135646,21.475 C38.3945646,21.251 38.4015646,21.018 38.3465646,20.803 C38.2565646,20.445 37.9955646,20.137 37.6215646,20.002 C37.2475646,19.867 36.8495646,19.937 36.5515646,20.155 C36.3725646,20.286 36.2285646,20.47 36.1475646,20.694 C36.0405646,20.992 36.0635646,21.306 36.1885646,21.573 C36.3145646,21.84 36.5415646,22.058 36.8405646,22.166 C37.1395646,22.274 37.4535646,22.251 37.7195646,22.126 C37.9865646,22 38.2055646,21.774 38.3135646,21.475 Z" id="Fill-72"></path>
                            <path d="M45.5295646,24.08 C45.6105646,23.855 45.6175646,23.623 45.5625646,23.408 C45.4725646,23.05 45.2115646,22.742 44.8375646,22.607 C44.4635646,22.471 44.0665646,22.542 43.7675646,22.76 C43.5885646,22.89 43.4455646,23.074 43.3645646,23.298 C43.2565646,23.597 43.2805646,23.911 43.4055646,24.178 C43.5305646,24.444 43.7575646,24.663 44.0565646,24.771 C44.3555646,24.879 44.6695646,24.855 44.9365646,24.73 C45.2025646,24.605 45.4215646,24.378 45.5295646,24.08 Z" id="Fill-73"></path>
                            <path d="M21.2765646,23.482 C21.4925646,22.884 21.1825646,22.224 20.5855646,22.009 C19.9875646,21.793 19.3275646,22.102 19.1115646,22.7 C18.8955646,23.298 19.2055646,23.958 19.8035646,24.174 C20.4015646,24.389 21.0615646,24.079 21.2765646,23.482 Z" id="Fill-74"></path>
                            <path d="M28.4925646,26.086 C28.7085646,25.489 28.3995646,24.829 27.8015646,24.613 C27.2025646,24.397 26.5435646,24.707 26.3275646,25.305 C26.1125646,25.903 26.4215646,26.562 27.0195646,26.778 C27.6175646,26.994 28.2775646,26.684 28.4925646,26.086 Z" id="Fill-75"></path>
                            <path d="M26.1865646,21.176 C26.4025646,20.578 26.0925646,19.919 25.4955646,19.703 C24.8975646,19.488 24.2385646,19.797 24.0225646,20.395 C23.8065646,20.992 24.1165646,21.652 24.7145646,21.868 C25.3115646,22.084 25.9705646,21.773 26.1865646,21.176 Z" id="Fill-76"></path>
                            <path d="M23.5815646,28.392 C23.7975646,27.794 23.4885646,27.135 22.8915646,26.919 C22.2935646,26.703 21.6345646,27.013 21.4185646,27.611 C21.2025646,28.208 21.5115646,28.868 22.1095646,29.084 C22.7065646,29.3 23.3665646,28.989 23.5815646,28.392 Z" id="Fill-77"></path>
                            <path d="M33.4025646,23.781 C33.6185646,23.182 33.3085646,22.523 32.7105646,22.307 C32.1135646,22.092 31.4545646,22.402 31.2385646,22.999 C31.0235646,23.597 31.3325646,24.257 31.9295646,24.472 C32.5275646,24.688 33.1865646,24.378 33.4025646,23.781 Z" id="Fill-78"></path>
                            <path d="M30.7985646,30.996 C31.0135646,30.399 30.7045646,29.739 30.1065646,29.523 C29.5095646,29.308 28.8495646,29.617 28.6345646,30.216 C28.4185646,30.812 28.7275646,31.473 29.3245646,31.688 C29.9225646,31.904 30.5825646,31.594 30.7985646,30.996 Z" id="Fill-79"></path>
                            <path d="M23.8815646,16.266 C23.9625646,16.042 23.9685646,15.809 23.9145646,15.594 C23.8245646,15.236 23.5635646,14.928 23.1895646,14.793 C22.8155646,14.658 22.4175646,14.728 22.1195646,14.946 C21.9405646,15.076 21.7965646,15.261 21.7155646,15.485 C21.6085646,15.783 21.6315646,16.097 21.7575646,16.364 C21.8825646,16.631 22.1095646,16.849 22.4075646,16.957 C22.7075646,17.065 23.0215646,17.042 23.2885646,16.917 C23.5545646,16.791 23.7735646,16.565 23.8815646,16.266 Z" id="Fill-80"></path>
                            <path d="M31.0975646,18.871 C31.1775646,18.646 31.1855646,18.413 31.1305646,18.199 C31.0405646,17.841 30.7795646,17.533 30.4055646,17.398 C30.0315646,17.263 29.6345646,17.333 29.3355646,17.551 C29.1565646,17.681 29.0135646,17.865 28.9325646,18.089 C28.8245646,18.388 28.8475646,18.702 28.9735646,18.969 C29.0985646,19.235 29.3255646,19.454 29.6245646,19.562 C29.9235646,19.67 30.2375646,19.646 30.5045646,19.521 C30.7705646,19.396 30.9895646,19.169 31.0975646,18.871 Z" id="Fill-81"></path>
                            <path d="M6.8445646,18.273 C7.0605646,17.675 6.7505646,17.015 6.1535646,16.8 C5.5545646,16.584 4.8955646,16.893 4.6795646,17.492 C4.4635646,18.089 4.7735646,18.749 5.3715646,18.965 C5.9695646,19.18 6.6295646,18.87 6.8445646,18.273 Z" id="Fill-82"></path>
                            <path d="M14.0605646,20.877 C14.2765646,20.28 13.9675646,19.62 13.3685646,19.404 C12.7715646,19.188 12.1115646,19.498 11.8955646,20.096 C11.6805646,20.694 11.9895646,21.353 12.5875646,21.569 C13.1855646,21.785 13.8445646,21.475 14.0605646,20.877 Z" id="Fill-83"></path>
                            <path d="M11.7545646,15.967 C11.9705646,15.369 11.6605646,14.71 11.0635646,14.494 C10.4655646,14.278 9.8065646,14.588 9.5905646,15.186 C9.3745646,15.783 9.6845646,16.443 10.2825646,16.659 C10.8795646,16.874 11.5385646,16.564 11.7545646,15.967 Z" id="Fill-84"></path>
                            <path d="M18.9705646,18.572 C19.1865646,17.973 18.8765646,17.314 18.2785646,17.098 C17.6815646,16.883 17.0225646,17.193 16.8065646,17.79 C16.5915646,18.388 16.9005646,19.048 17.4975646,19.263 C18.0955646,19.479 18.7545646,19.169 18.9705646,18.572 Z" id="Fill-85"></path>
                            <path d="M16.3655646,25.787 C16.5815646,25.189 16.2725646,24.53 15.6745646,24.314 C15.0775646,24.099 14.4175646,24.408 14.2015646,25.007 C13.9865646,25.603 14.2955646,26.264 14.8925646,26.479 C15.4905646,26.695 16.1505646,26.385 16.3655646,25.787 Z" id="Fill-86"></path>
                            <path d="M9.4485646,11.057 C9.5305646,10.833 9.5375646,10.6 9.4825646,10.385 C9.3925646,10.027 9.1315646,9.719 8.7575646,9.584 C8.3835646,9.449 7.9855646,9.519 7.6875646,9.737 C7.5085646,9.867 7.3645646,10.051 7.2835646,10.276 C7.1765646,10.574 7.1995646,10.888 7.3245646,11.155 C7.4505646,11.422 7.6765646,11.64 7.9765646,11.748 C8.2755646,11.856 8.5895646,11.833 8.8565646,11.707 C9.1225646,11.582 9.3415646,11.356 9.4485646,11.057 Z" id="Fill-87"></path>
                            <path d="M16.6655646,13.661 C16.7465646,13.437 16.7535646,13.204 16.6985646,12.99 C16.6085646,12.632 16.3475646,12.324 15.9735646,12.188 C15.5995646,12.054 15.2015646,12.124 14.9035646,12.342 C14.7245646,12.472 14.5815646,12.656 14.5005646,12.88 C14.3925646,13.179 14.4165646,13.493 14.5415646,13.76 C14.6665646,14.026 14.8935646,14.245 15.1925646,14.353 C15.4915646,14.461 15.8055646,14.437 16.0725646,14.312 C16.3385646,14.187 16.5575646,13.96 16.6655646,13.661 Z" id="Fill-88"></path>
                            <path d="M4.5385646,13.363 C4.7545646,12.764 4.4445646,12.105 3.8465646,11.889 C3.2495646,11.674 2.5905646,11.983 2.3745646,12.581 C2.1585646,13.179 2.4685646,13.839 3.0655646,14.054 C3.6635646,14.27 4.3225646,13.96 4.5385646,13.363 Z" id="Fill-89"></path>
                            <path d="M2.2335646,8.452 C2.3145646,8.228 2.3215646,7.995 2.2665646,7.781 C2.1765646,7.423 1.9155646,7.115 1.5415646,6.979 C1.1675646,6.845 0.769564601,6.915 0.471564601,7.133 C0.292564601,7.263 0.149564601,7.447 0.0685646008,7.671 C-0.0394353992,7.97 -0.0154353992,8.284 0.109564601,8.551 C0.234564601,8.817 0.461564601,9.036 0.759564601,9.144 C1.0595646,9.252 1.3735646,9.228 1.6405646,9.103 C1.9065646,8.978 2.1255646,8.751 2.2335646,8.452 Z" id="Fill-90"></path>
                            <path d="M40.9175646,14.259 C41.1335646,13.661 40.8235646,13.002 40.2255646,12.786 C39.6285646,12.57 38.9685646,12.88 38.7525646,13.478 C38.5365646,14.075 38.8465646,14.735 39.4445646,14.951 C40.0425646,15.167 40.7015646,14.857 40.9175646,14.259 Z" id="Fill-91"></path>
                            <path d="M43.2225646,19.169 C43.4385646,18.571 43.1295646,17.912 42.5315646,17.697 C41.9345646,17.481 41.2745646,17.79 41.0585646,18.388 C40.8435646,18.985 41.1525646,19.646 41.7505646,19.862 C42.3475646,20.077 43.0075646,19.766 43.2225646,19.169 Z" id="Fill-92"></path>
                            <path d="M26.4855646,9.05 C26.7015646,8.452 26.3915646,7.793 25.7935646,7.577 C25.1965646,7.361 24.5365646,7.671 24.3205646,8.269 C24.1045646,8.866 24.4145646,9.526 25.0125646,9.742 C25.6105646,9.958 26.2705646,9.648 26.4855646,9.05 Z" id="Fill-93"></path>
                            <path d="M33.7015646,11.655 C33.9175646,11.057 33.6085646,10.397 33.0095646,10.181 C32.4115646,9.966 31.7525646,10.275 31.5365646,10.873 C31.3215646,11.471 31.6305646,12.131 32.2285646,12.346 C32.8265646,12.562 33.4865646,12.252 33.7015646,11.655 Z" id="Fill-94"></path>
                            <path d="M28.7905646,13.96 C29.0065646,13.362 28.6975646,12.703 28.1005646,12.488 C27.5025646,12.272 26.8435646,12.581 26.6275646,13.179 C26.4115646,13.776 26.7205646,14.436 27.3185646,14.652 C27.9155646,14.868 28.5755646,14.557 28.7905646,13.96 Z" id="Fill-95"></path>
                            <path d="M36.0075646,16.565 C36.2225646,15.967 35.9135646,15.307 35.3155646,15.092 C34.7185646,14.876 34.0585646,15.186 33.8435646,15.784 C33.6275646,16.381 33.9365646,17.041 34.5335646,17.257 C35.1315646,17.472 35.7915646,17.162 36.0075646,16.565 Z" id="Fill-96"></path>
                            <path d="M12.0535646,3.841 C12.2695646,3.243 11.9595646,2.584 11.3625646,2.368 C10.7635646,2.152 10.1045646,2.462 9.8885646,3.059 C9.6725646,3.657 9.9825646,4.317 10.5805646,4.533 C11.1785646,4.749 11.8385646,4.439 12.0535646,3.841 Z" id="Fill-97"></path>
                            <path d="M19.2695646,6.446 C19.4855646,5.847 19.1765646,5.188 18.5775646,4.972 C17.9795646,4.757 17.3205646,5.066 17.1045646,5.664 C16.8885646,6.262 17.1985646,6.922 17.7965646,7.138 C18.3945646,7.353 19.0535646,7.043 19.2695646,6.446 Z" id="Fill-98"></path>
                            <path d="M16.9635646,1.535 C17.1435646,1.036 16.9535646,0.497 16.5395646,0.206 C16.2925646,0.134 16.0425646,0.065 15.7925646,0 C15.3555646,0.034 14.9575646,0.315 14.7995646,0.754 C14.5835646,1.352 14.8935646,2.012 15.4915646,2.227 C16.0885646,2.443 16.7475646,2.133 16.9635646,1.535 Z" id="Fill-99"></path>
                            <path d="M14.3595646,8.751 C14.5745646,8.153 14.2655646,7.494 13.6685646,7.279 C13.0705646,7.063 12.4105646,7.372 12.1955646,7.97 C11.9795646,8.567 12.2885646,9.227 12.8865646,9.443 C13.4835646,9.659 14.1435646,9.348 14.3595646,8.751 Z" id="Fill-100"></path>
                            <path d="M21.5745646,11.356 C21.7905646,10.758 21.4815646,10.098 20.8835646,9.883 C20.2865646,9.667 19.6265646,9.977 19.4105646,10.575 C19.1955646,11.172 19.5045646,11.832 20.1015646,12.048 C20.6995646,12.263 21.3595646,11.953 21.5745646,11.356 Z" id="Fill-101"></path>
                            <path d="M7.1425646,6.147 C7.3585646,5.549 7.0495646,4.889 6.4515646,4.674 C5.8545646,4.458 5.1955646,4.768 4.9795646,5.366 C4.7635646,5.963 5.0725646,6.623 5.6695646,6.838 C6.2675646,7.054 6.9275646,6.743 7.1425646,6.147 Z" id="Fill-102"></path>
                        </g>
                        <g id="Group" transform="translate(-0.000009, 140.761395)">
                            <path d="M38.9153091,5.18930507 C38.8733091,5.89230507 39.4083091,6.49530507 40.1123091,6.53730507 C40.8153091,6.57830507 41.4183091,6.04230507 41.4603091,5.33930507 C41.5013091,4.63730507 40.9653091,4.03430507 40.2633091,3.99230507 C39.5593091,3.95130507 38.9563091,4.48730507 38.9153091,5.18930507 Z" id="Fill-103"></path>
                            <path d="M34.4253091,9.17930507 C34.3843091,9.88130507 34.9193091,10.4853051 35.6213091,10.5263051 C36.3243091,10.5683051 36.9273091,10.0323051 36.9683091,9.32930507 C37.0103091,8.62630507 36.4743091,8.02330507 35.7713091,7.98230507 C35.0703091,7.94030507 34.4673091,8.47730507 34.4253091,9.17930507 Z" id="Fill-104"></path>
                            <path d="M38.4143091,13.6693051 C38.3983091,13.9333051 38.4643091,14.1823051 38.5893091,14.3933051 C38.7983091,14.7463051 39.1713091,14.9913051 39.6113091,15.0163051 C40.0503091,15.0423051 40.4513091,14.8423051 40.7003091,14.5183051 C40.8493091,14.3233051 40.9433091,14.0823051 40.9593091,13.8203051 C40.9853091,13.3813051 40.7853091,12.9813051 40.4603091,12.7323051 C40.2653091,12.5823051 40.0253091,12.4893051 39.7613091,12.4733051 C39.4983091,12.4573051 39.2483091,12.5233051 39.0373091,12.6483051 C38.6843091,12.8573051 38.4403091,13.2313051 38.4143091,13.6693051 Z" id="Fill-105"></path>
                            <path d="M29.9333091,13.1683051 C29.9183091,13.4313051 29.9843091,13.6813051 30.1093091,13.8923051 C30.3173091,14.2443051 30.6913091,14.4903051 31.1313091,14.5153051 C31.5703091,14.5413051 31.9703091,14.3413051 32.2193091,14.0173051 C32.3683091,13.8223051 32.4623091,13.5813051 32.4783091,13.3193051 C32.5043091,12.8803051 32.3043091,12.4803051 31.9793091,12.2313051 C31.7853091,12.0813051 31.5443091,11.9873051 31.2813091,11.9723051 C31.0173091,11.9563051 30.7683091,12.0223051 30.5573091,12.1473051 C30.2053091,12.3563051 29.9593091,12.7303051 29.9333091,13.1683051 Z" id="Fill-106"></path>
                            <path d="M47.3953091,5.69030507 C47.3543091,6.39330507 47.8903091,6.99630507 48.5933091,7.03830507 C49.2953091,7.07930507 49.8983091,6.54330507 49.9403091,5.84030507 C49.9813091,5.13830507 49.4463091,4.53530507 48.7433091,4.49330507 C48.0403091,4.45230507 47.4373091,4.98830507 47.3953091,5.69030507 Z" id="Fill-107"></path>
                            <path d="M51.3863091,10.1813051 C51.3443091,10.8833051 51.8803091,11.4873051 52.5813091,11.5283051 C53.2853091,11.5703051 53.8873091,11.0343051 53.9293091,10.3313051 C53.9703091,9.62830507 53.4343091,9.02530507 52.7323091,8.98430507 C52.0303091,8.94230507 51.4273091,9.47930507 51.3863091,10.1813051 Z" id="Fill-108"></path>
                            <path d="M42.9053091,9.68030507 C42.8643091,10.3823051 43.3993091,10.9863051 44.1023091,11.0273051 C44.8043091,11.0693051 45.4073091,10.5333051 45.4493091,9.83030507 C45.4903091,9.12730507 44.9543091,8.52430507 44.2533091,8.48330507 C43.5503091,8.44130507 42.9473091,8.97830507 42.9053091,9.68030507 Z" id="Fill-109"></path>
                            <path d="M43.4063091,1.20030507 C43.3653091,1.90230507 43.9013091,2.50530507 44.6033091,2.54630507 C45.3053091,2.58830507 45.9083091,2.05230507 45.9503091,1.34930507 C45.9913091,0.648305071 45.4553091,0.0433050714 44.7543091,0.00230507144 C44.0513091,-0.0396949286 43.4483091,0.497305071 43.4063091,1.20030507 Z" id="Fill-110"></path>
                            <path d="M55.3753091,14.6713051 C55.3593091,14.9353051 55.4253091,15.1843051 55.5503091,15.3953051 C55.7593091,15.7473051 56.1333091,15.9933051 56.5723091,16.0183051 C57.0113091,16.0443051 57.4113091,15.8453051 57.6603091,15.5203051 C57.8093091,15.3253051 57.9043091,15.0853051 57.9203091,14.8223051 C57.9463091,14.3833051 57.7463091,13.9833051 57.4213091,13.7343051 C57.2263091,13.5853051 56.9863091,13.4913051 56.7223091,13.4753051 C56.4583091,13.4593051 56.2093091,13.5253051 55.9983091,13.6503051 C55.6463091,13.8593051 55.4013091,14.2333051 55.3753091,14.6713051 Z" id="Fill-111"></path>
                            <path d="M46.8943091,14.1703051 C46.8793091,14.4343051 46.9453091,14.6833051 47.0703091,14.8943051 C47.2783091,15.2473051 47.6523091,15.4923051 48.0913091,15.5173051 C48.5313091,15.5433051 48.9313091,15.3443051 49.1803091,15.0193051 C49.3283091,14.8243051 49.4233091,14.5843051 49.4393091,14.3213051 C49.4653091,13.8823051 49.2653091,13.4823051 48.9403091,13.2333051 C48.7453091,13.0833051 48.5053091,12.9903051 48.2423091,12.9743051 C47.9783091,12.9583051 47.7293091,13.0243051 47.5173091,13.1493051 C47.1663091,13.3583051 46.9203091,13.7323051 46.8943091,14.1703051 Z" id="Fill-112"></path>
                            <path d="M3.99130908,20.1453051 C3.95030908,20.8483051 4.48530908,21.4513051 5.18830908,21.4933051 C5.89130908,21.5353051 6.49530908,20.9983051 6.53630908,20.2953051 C6.57830908,19.5933051 6.04130908,18.9903051 5.33830908,18.9493051 C4.63630908,18.9073051 4.03330908,19.4433051 3.99130908,20.1453051 Z" id="Fill-113"></path>
                            <path d="M0.00230908068,15.6553051 C-0.0396909193,16.3583051 0.496309081,16.9603051 1.19830908,17.0013051 C1.90030908,17.0433051 2.50330908,16.5073051 2.54530908,15.8053051 C2.58630908,15.1033051 2.05130908,14.4993051 1.34830908,14.4573051 C0.646309081,14.4163051 0.0433090807,14.9533051 0.00230908068,15.6553051 Z" id="Fill-114"></path>
                            <path d="M20.9533091,21.1473051 C20.9113091,21.8503051 21.4473091,22.4543051 22.1493091,22.4953051 C22.8523091,22.5373051 23.4553091,22.0003051 23.4973091,21.2973051 C23.5383091,20.5953051 23.0023091,19.9923051 22.3003091,19.9513051 C21.5973091,19.9093051 20.9943091,20.4453051 20.9533091,21.1473051 Z" id="Fill-115"></path>
                            <path d="M12.4723091,20.6463051 C12.4313091,21.3493051 12.9663091,21.9533051 13.6693091,21.9943051 C14.3713091,22.0363051 14.9743091,21.4993051 15.0163091,20.7963051 C15.0573091,20.0943051 14.5223091,19.4913051 13.8193091,19.4503051 C13.1173091,19.4083051 12.5143091,19.9443051 12.4723091,20.6463051 Z" id="Fill-116"></path>
                            <path d="M16.4623091,25.1373051 C16.4213091,25.8403051 16.9563091,26.4433051 17.6583091,26.4843051 C18.3613091,26.5263051 18.9643091,25.9903051 19.0053091,25.2883051 C19.0473091,24.5853051 18.5113091,23.9823051 17.8083091,23.9403051 C17.1073091,23.8993051 16.5043091,24.4353051 16.4623091,25.1373051 Z" id="Fill-117"></path>
                            <path d="M7.98130908,24.6363051 C7.94030908,25.3393051 8.47530908,25.9423051 9.17830908,25.9843051 C9.88030908,26.0253051 10.4833091,25.4893051 10.5253091,24.7873051 C10.5663091,24.0843051 10.0313091,23.4813051 9.32930908,23.4393051 C8.62630908,23.3983051 8.02330908,23.9343051 7.98130908,24.6363051 Z" id="Fill-118"></path>
                            <path d="M8.48230908,16.1563051 C8.44130908,16.8593051 8.97630908,17.4613051 9.68030908,17.5033051 C10.3813091,17.5443051 10.9843091,17.0083051 11.0263091,16.3063051 C11.0673091,15.6043051 10.5323091,15.0003051 9.83030908,14.9583051 C9.12730908,14.9173051 8.52430908,15.4553051 8.48230908,16.1563051 Z" id="Fill-119"></path>
                            <path d="M20.4513091,29.6273051 C20.4363091,29.8913051 20.5013091,30.1403051 20.6263091,30.3523051 C20.8353091,30.7043051 21.2093091,30.9493051 21.6483091,30.9753051 C22.0873091,31.0003051 22.4883091,30.8013051 22.7373091,30.4763051 C22.8863091,30.2823051 22.9803091,30.0413051 22.9963091,29.7783051 C23.0173091,29.4273051 22.8933091,29.1013051 22.6763091,28.8573051 C22.4603091,28.6133051 22.1503091,28.4523051 21.7993091,28.4313051 C21.4473091,28.4113051 21.1203091,28.5343051 20.8773091,28.7503051 C20.6333091,28.9673051 20.4723091,29.2773051 20.4513091,29.6273051 Z" id="Fill-120"></path>
                            <path d="M11.9713091,29.1263051 C11.9553091,29.3903051 12.0213091,29.6393051 12.1463091,29.8513051 C12.3553091,30.2033051 12.7283091,30.4483051 13.1683091,30.4743051 C13.6073091,30.4993051 14.0073091,30.3003051 14.2563091,29.9753051 C14.4053091,29.7813051 14.4993091,29.5403051 14.5153091,29.2773051 C14.5363091,28.9263051 14.4123091,28.6003051 14.1963091,28.3563051 C13.9793091,28.1123051 13.6693091,27.9513051 13.3183091,27.9303051 C12.9673091,27.9103051 12.6413091,28.0333051 12.3963091,28.2493051 C12.1533091,28.4663051 11.9923091,28.7763051 11.9713091,29.1263051 Z" id="Fill-121"></path>
                            <path d="M37.9133091,22.1503051 C37.8713091,22.8523051 38.4063091,23.4563051 39.1103091,23.4973051 C39.8133091,23.5393051 40.4163091,23.0023051 40.4583091,22.3003051 C40.4993091,21.5983051 39.9623091,20.9943051 39.2603091,20.9533051 C38.5573091,20.9113051 37.9543091,21.4483051 37.9133091,22.1503051 Z" id="Fill-122"></path>
                            <path d="M29.4323091,21.6493051 C29.3913091,22.3513051 29.9273091,22.9553051 30.6303091,22.9963051 C31.3323091,23.0383051 31.9353091,22.5013051 31.9773091,21.7983051 C32.0183091,21.0963051 31.4833091,20.4933051 30.7803091,20.4523051 C30.0773091,20.4103051 29.4743091,20.9473051 29.4323091,21.6493051 Z" id="Fill-123"></path>
                            <path d="M33.4233091,26.1393051 C33.3813091,26.8423051 33.9173091,27.4453051 34.6193091,27.4873051 C35.3223091,27.5283051 35.9253091,26.9933051 35.9663091,26.2893051 C36.0083091,25.5873051 35.4723091,24.9843051 34.7693091,24.9423051 C34.0673091,24.9013051 33.4643091,25.4373051 33.4233091,26.1393051 Z" id="Fill-124"></path>
                            <path d="M33.9243091,17.6593051 C33.8833091,18.3623051 34.4183091,18.9643051 35.1203091,19.0063051 C35.8233091,19.0473051 36.4263091,18.5123051 36.4673091,17.8093051 C36.5093091,17.1083051 35.9733091,16.5033051 35.2703091,16.4613051 C34.5683091,16.4203051 33.9653091,16.9573051 33.9243091,17.6593051 Z" id="Fill-125"></path>
                            <path d="M24.9433091,25.6383051 C24.9013091,26.3413051 25.4373091,26.9443051 26.1403091,26.9863051 C26.8413091,27.0273051 27.4443091,26.4913051 27.4863091,25.7893051 C27.5273091,25.0863051 26.9923091,24.4833051 26.2903091,24.4413051 C25.5873091,24.4003051 24.9843091,24.9363051 24.9433091,25.6383051 Z" id="Fill-126"></path>
                            <path d="M25.4443091,17.1583051 C25.4023091,17.8613051 25.9383091,18.4633051 26.6413091,18.5053051 C27.3423091,18.5463051 27.9453091,18.0113051 27.9873091,17.3083051 C28.0283091,16.6063051 27.4933091,16.0023051 26.7913091,15.9603051 C26.0883091,15.9193051 25.4853091,16.4563051 25.4443091,17.1583051 Z" id="Fill-127"></path>
                            <path d="M37.4123091,30.6293051 C37.3963091,30.8933051 37.4623091,31.1433051 37.5873091,31.3543051 C37.7963091,31.7063051 38.1693091,31.9513051 38.6093091,31.9773051 C39.0483091,32.0023051 39.4493091,31.8033051 39.6973091,31.4783051 C39.8473091,31.2843051 39.9413091,31.0433051 39.9573091,30.7803051 C39.9773091,30.4293051 39.8543091,30.1033051 39.6373091,29.8593051 C39.4193091,29.6163051 39.1113091,29.4543051 38.7593091,29.4333051 C38.4083091,29.4133051 38.0813091,29.5373051 37.8373091,29.7523051 C37.5943091,29.9693051 37.4333091,30.2793051 37.4123091,30.6293051 Z" id="Fill-128"></path>
                            <path d="M28.9323091,30.1283051 C28.9163091,30.3923051 28.9823091,30.6423051 29.1073091,30.8533051 C29.3153091,31.2053051 29.6893091,31.4503051 30.1293091,31.4763051 C30.5683091,31.5013051 30.9683091,31.3023051 31.2173091,30.9773051 C31.3663091,30.7833051 31.4603091,30.5423051 31.4763091,30.2793051 C31.4963091,29.9283051 31.3733091,29.6023051 31.1573091,29.3583051 C30.9403091,29.1143051 30.6303091,28.9533051 30.2793091,28.9323051 C29.9283091,28.9123051 29.6013091,29.0353051 29.3573091,29.2513051 C29.1143091,29.4683051 28.9533091,29.7783051 28.9323091,30.1283051 Z" id="Fill-129"></path>
                            <path d="M54.8743091,23.1523051 C54.8323091,23.8543051 55.3683091,24.4573051 56.0713091,24.4983051 C56.7733091,24.5403051 57.3773091,24.0043051 57.4193091,23.3023051 C57.4603091,22.6003051 56.9243091,21.9963051 56.2213091,21.9553051 C55.5183091,21.9133051 54.9153091,22.4503051 54.8743091,23.1523051 Z" id="Fill-130"></path>
                            <path d="M46.3933091,22.6513051 C46.3523091,23.3533051 46.8883091,23.9563051 47.5903091,23.9973051 C48.2933091,24.0393051 48.8963091,23.5033051 48.9383091,22.8013051 C48.9793091,22.0993051 48.4443091,21.4953051 47.7413091,21.4543051 C47.0383091,21.4123051 46.4353091,21.9493051 46.3933091,22.6513051 Z" id="Fill-131"></path>
                            <path d="M50.3843091,27.1413051 C50.3423091,27.8443051 50.8783091,28.4473051 51.5793091,28.4893051 C52.2823091,28.5303051 52.8853091,27.9953051 52.9273091,27.2913051 C52.9683091,26.5893051 52.4323091,25.9863051 51.7303091,25.9443051 C51.0283091,25.9033051 50.4253091,26.4393051 50.3843091,27.1413051 Z" id="Fill-132"></path>
                            <path d="M50.8853091,18.6613051 C50.8433091,19.3643051 51.3793091,19.9663051 52.0803091,20.0083051 C52.7833091,20.0493051 53.3863091,19.5143051 53.4283091,18.8113051 C53.4693091,18.1103051 52.9333091,17.5053051 52.2313091,17.4633051 C51.5293091,17.4223051 50.9263091,17.9593051 50.8853091,18.6613051 Z" id="Fill-133"></path>
                            <path d="M41.9033091,26.6403051 C41.8623091,27.3433051 42.3973091,27.9463051 43.1003091,27.9883051 C43.8023091,28.0293051 44.4053091,27.4943051 44.4463091,26.7903051 C44.4883091,26.0883051 43.9523091,25.4853051 43.2503091,25.4433051 C42.5483091,25.4023051 41.9453091,25.9383051 41.9033091,26.6403051 Z" id="Fill-134"></path>
                            <path d="M42.4043091,18.1603051 C42.3633091,18.8633051 42.8983091,19.4653051 43.6013091,19.5073051 C44.3033091,19.5483051 44.9063091,19.0133051 44.9473091,18.3103051 C44.9893091,17.6093051 44.4533091,17.0043051 43.7513091,16.9623051 C43.0493091,16.9213051 42.4463091,17.4583051 42.4043091,18.1603051 Z" id="Fill-135"></path>
                            <path d="M54.3733091,31.6313051 C54.3573091,31.8953051 54.4233091,32.1453051 54.5483091,32.3563051 C54.7573091,32.7073051 55.1313091,32.9533051 55.5703091,32.9793051 C56.0093091,33.0043051 56.4103091,32.8053051 56.6583091,32.4813051 C56.8073091,32.2863051 56.9023091,32.0453051 56.9183091,31.7823051 C56.9383091,31.4313051 56.8153091,31.1053051 56.5983091,30.8613051 C56.3813091,30.6183051 56.0723091,30.4563051 55.7203091,30.4353051 C55.3693091,30.4143051 55.0423091,30.5393051 54.7983091,30.7543051 C54.5553091,30.9713051 54.3933091,31.2813051 54.3733091,31.6313051 Z" id="Fill-136"></path>
                            <path d="M45.8923091,31.1303051 C45.8773091,31.3943051 45.9423091,31.6443051 46.0683091,31.8553051 C46.2763091,32.2063051 46.6503091,32.4523051 47.0893091,32.4783051 C47.5293091,32.5033051 47.9293091,32.3043051 48.1783091,31.9793051 C48.3273091,31.7853051 48.4213091,31.5443051 48.4373091,31.2813051 C48.4573091,30.9303051 48.3343091,30.6043051 48.1173091,30.3603051 C47.9013091,30.1173051 47.5913091,29.9553051 47.2403091,29.9343051 C46.8883091,29.9143051 46.5623091,30.0383051 46.3183091,30.2533051 C46.0743091,30.4703051 45.9133091,30.7803051 45.8923091,31.1303051 Z" id="Fill-137"></path>
                            <path d="M71.8353091,24.1543051 C71.7933091,24.8563051 72.3293091,25.4593051 73.0323091,25.5003051 C73.7343091,25.5423051 74.3383091,25.0063051 74.3793091,24.3043051 C74.4213091,23.6023051 73.8853091,22.9983051 73.1823091,22.9563051 C72.4793091,22.9153051 71.8763091,23.4523051 71.8353091,24.1543051 Z" id="Fill-138"></path>
                            <path d="M63.3543091,23.6533051 C63.3133091,24.3553051 63.8493091,24.9583051 64.5513091,24.9993051 C65.2543091,25.0413051 65.8573091,24.5053051 65.8983091,23.8033051 C65.9403091,23.1013051 65.4043091,22.4973051 64.7023091,22.4563051 C63.9993091,22.4143051 63.3963091,22.9513051 63.3543091,23.6533051 Z" id="Fill-139"></path>
                            <path d="M67.3453091,28.1433051 C67.3033091,28.8463051 67.8393091,29.4493051 68.5403091,29.4913051 C69.2433091,29.5323051 69.8463091,28.9973051 69.8883091,28.2933051 C69.9293091,27.5913051 69.3933091,26.9883051 68.6913091,26.9473051 C67.9893091,26.9053051 67.3863091,27.4413051 67.3453091,28.1433051 Z" id="Fill-140"></path>
                            <path d="M58.8643091,27.6423051 C58.8233091,28.3453051 59.3583091,28.9483051 60.0613091,28.9903051 C60.7633091,29.0313051 61.3663091,28.4963051 61.4073091,27.7923051 C61.4493091,27.0903051 60.9133091,26.4873051 60.2113091,26.4463051 C59.5093091,26.4043051 58.9063091,26.9403051 58.8643091,27.6423051 Z" id="Fill-141"></path>
                            <path d="M59.3653091,19.1623051 C59.3243091,19.8653051 59.8593091,20.4673051 60.5623091,20.5093051 C61.2643091,20.5503051 61.8673091,20.0153051 61.9083091,19.3123051 C61.9503091,18.6113051 61.4143091,18.0063051 60.7123091,17.9653051 C60.0103091,17.9233051 59.4073091,18.4603051 59.3653091,19.1623051 Z" id="Fill-142"></path>
                            <path d="M71.3333091,32.6333051 C71.3183091,32.8973051 71.3843091,33.1473051 71.5093091,33.3583051 C71.7173091,33.7093051 72.0913091,33.9553051 72.5313091,33.9813051 C72.9703091,34.0073051 73.3703091,33.8073051 73.6193091,33.4833051 C73.7683091,33.2883051 73.8633091,33.0473051 73.8783091,32.7843051 C73.8993091,32.4333051 73.7753091,32.1073051 73.5583091,31.8633051 C73.3423091,31.6203051 73.0323091,31.4583051 72.6813091,31.4373051 C72.3293091,31.4163051 72.0033091,31.5403051 71.7593091,31.7563051 C71.5163091,31.9733051 71.3543091,32.2833051 71.3333091,32.6333051 Z" id="Fill-143"></path>
                            <path d="M62.8533091,32.1323051 C62.8383091,32.3963051 62.9033091,32.6463051 63.0283091,32.8573051 C63.2373091,33.2083051 63.6113091,33.4543051 64.0503091,33.4803051 C64.4903091,33.5053051 64.8903091,33.3063051 65.1383091,32.9823051 C65.2873091,32.7873051 65.3823091,32.5463051 65.3973091,32.2833051 C65.4183091,31.9323051 65.2953091,31.6063051 65.0783091,31.3623051 C64.8613091,31.1193051 64.5523091,30.9573051 64.2013091,30.9363051 C63.8493091,30.9153051 63.5233091,31.0393051 63.2793091,31.2553051 C63.0353091,31.4723051 62.8743091,31.7823051 62.8533091,32.1323051 Z" id="Fill-144"></path>
                            <path d="M75.8253091,28.6443051 C75.7843091,29.3473051 76.3193091,29.9503051 77.0223091,29.9923051 C77.7243091,30.0333051 78.3273091,29.4973051 78.3683091,28.7943051 C78.4103091,28.0923051 77.8743091,27.4893051 77.1723091,27.4483051 C76.4703091,27.4063051 75.8673091,27.9423051 75.8253091,28.6443051 Z" id="Fill-145"></path>
                            <path d="M79.8143091,33.1343051 C79.7983091,33.3983051 79.8643091,33.6483051 79.9893091,33.8593051 C80.1983091,34.2103051 80.5723091,34.4563051 81.0113091,34.4823051 C81.4503091,34.5083051 81.8503091,34.3083051 82.0993091,33.9843051 C82.2483091,33.7893051 82.3433091,33.5483051 82.3583091,33.2853051 C82.3793091,32.9343051 82.2553091,32.6083051 82.0393091,32.3643051 C81.8223091,32.1213051 81.5133091,31.9593051 81.1613091,31.9383051 C80.8103091,31.9173051 80.4833091,32.0413051 80.2403091,32.2583051 C79.9963091,32.4743051 79.8353091,32.7843051 79.8143091,33.1343051 Z" id="Fill-146"></path>
                            <path d="M15.9613091,33.6183051 C15.9203091,34.3203051 16.4553091,34.9233051 17.1573091,34.9643051 C17.8603091,35.0063051 18.4633091,34.4703051 18.5043091,33.7673051 C18.5463091,33.0663051 18.0103091,32.4613051 17.3073091,32.4203051 C16.6063091,32.3783051 16.0033091,32.9153051 15.9613091,33.6183051 Z" id="Fill-147"></path>
                            <path d="M24.4423091,34.1193051 C24.4003091,34.8213051 24.9363091,35.4243051 25.6393091,35.4653051 C26.3403091,35.5073051 26.9433091,34.9713051 26.9853091,34.2683051 C27.0263091,33.5673051 26.4913091,32.9623051 25.7893091,32.9213051 C25.0863091,32.8793051 24.4833091,33.4163051 24.4423091,34.1193051 Z" id="Fill-148"></path>
                        </g>
                    </g>
                </g>
            </g>
        </g>
    </g>
</svg>