<svg xmlns="http://www.w3.org/2000/svg" width="99" height="114" viewBox="0 0 99 114">
    <g fill="none" fill-rule="nonzero">
        <path fill="#FFF" d="M84.495.11H55.708c-6.893 0-12.48 5.587-12.48 12.48v83.864c0 1.32-.525 2.586-1.457 3.52a4.98 4.98 0 0 1-3.52 1.457H14.2V58.145H.091a9.936 9.936 0 0 0-.049.941v54.824h43.186c6.987 0 12.651-5.665 12.651-12.651V17.567a4.98 4.98 0 0 1 1.457-3.52 4.981 4.981 0 0 1 3.52-1.457h23.639v43.736h14.078c.153-1.484.201-3.098.201-4.786l-.123-38.95.123-12.48h-14.28z"/>
        <path fill="#EDEDED" d="M43.228 25.196l-.001 27.515v20.665c3.01 9.828 12.652 13.621 12.652 13.621V38.134C52.85 28.8 43.228 25.197 43.228 25.197"/>
        <path fill="#FFF" d="M27.987 30.406C12.487 30.478-.02 43.104.052 58.603l.003.552 14.125-.205c-.003-7.995 5.867-14.975 13.87-15.013 6.815-.032 12.54 4.64 14.142 10.96.003-.006 0 0 0 0s.398 1.293.408 1.427c.141.611.286 1.39.39 2.27h.001l.273 1.961a28.035 28.035 0 0 0 7.904 13.876c5.073 4.864 11.956 7.852 19.54 7.817 15.5-.073 28.005-12.699 27.933-28.198-.004-.936-14.145-.32-14.145-.32.002.463-.029.932-.065 1.388-.595 7.423-6.224 13.562-13.787 13.598-6.591.031-12.162-4.336-13.97-10.34l-.009-.002-.003-.006.011.007s-.297-.823-.475-1.532a33.719 33.719 0 0 1-.326-2.099c-.037-.282-.187-1.224-.276-1.78a27.99 27.99 0 0 0-8.071-14.742c-5.044-4.834-11.875-7.816-19.404-7.816h-.134z"/>
    </g>
</svg>
