<svg xmlns="http://www.w3.org/2000/svg" width="297" height="86" viewBox="0 0 297 86">
    <g fill="none" fill-rule="nonzero">
        <g fill="#FFF">
            <path d="M126.54 68.848c-3.825-.233-5.738-1.865-5.738-5.127V42.589c-.26-4.273-2.87-6.37-8-6.37s-7.739 2.097-7.825 6.37v26.259H93.238V44.686c0-11.73 6.609-17.557 19.74-17.557 13.128 0 19.562 5.827 19.475 17.557v24.162h-5.913zM166.365 51.99v-3.808c-2.696 1.01-5.826 1.865-9.218 2.486-4.607.778-6.956 2.72-6.956 5.75.263 3.263 2.174 4.817 5.827 4.817 6.433 0 10.347-3.418 10.347-9.246m-14.607-13.517h-11.566c1.391-7.614 7.392-11.344 18-11.344 12.693 0 19.129 3.73 19.39 11.344v13.984c0 11.343-7.652 16.391-20.086 17.17-11.042.775-18.695-3.808-18.695-12.898.26-9.865 8.26-12.509 19.913-13.518 4.955-.544 7.476-1.863 7.476-4.117-.26-2.33-2.694-3.497-7.476-3.497-4.087 0-6.349.933-6.956 2.876M196.71 48.182c-.086 8.313 3.045 12.509 9.652 12.509 6.609 0 9.912-4.196 9.912-12.509-.26-7.924-3.477-11.809-9.738-11.809-6.26 0-9.479 3.885-9.825 11.809m31.042-26.958v29.832c0 12.354-7.218 18.49-21.565 18.413-14.259-.233-21.388-7.147-21.388-20.82 0-13.985 6.085-21.131 18.346-21.52 5.737 0 10.172 2.098 13.128 6.37V16.02h5.74c3.13 0 5.739 2.409 5.739 5.205M246.708 21.07v47.778h-11.563V16.02h5.999c3.044 0 5.564 2.33 5.564 5.05M267.142 43.833h17.302c-.695-5.439-3.566-8.237-8.521-8.237-4.957 0-7.913 2.798-8.781 8.237m8.78 25.947c-13.911-.388-20.867-7.613-20.867-21.598 0-13.983 7.043-20.976 21.042-21.054 14.608 0 21.475 8.003 20.607 24.085h-29.738c.436 6.292 3.478 9.478 9.131 9.478 2.695 0 5.217-1.01 7.476-2.952 1.045-1.01 2.35-1.476 3.914-1.476h8.52c-2.52 8.7-8.78 13.517-20.084 13.517"/>
        </g>
        <path fill="#FFF" d="M63.615.067H41.944a9.394 9.394 0 0 0-9.394 9.395v63.13a3.75 3.75 0 0 1-1.096 2.65 3.75 3.75 0 0 1-2.65 1.097H10.699V43.754H.079a7.5 7.5 0 0 0-.037.709v41.27H32.55a9.523 9.523 0 0 0 9.524-9.524v-63a3.75 3.75 0 0 1 3.746-3.747h17.795v32.923h10.598c.115-1.117.15-2.332.15-3.602l-.092-29.321.093-9.395h-10.75z"/>
        <path fill="#EDEDED" d="M32.55 18.952V55.22c2.266 7.398 9.524 10.253 9.524 10.253V28.691c-2.28-7.027-9.524-9.74-9.524-9.74"/>
        <path fill="#FFF" d="M21.078 22.873C9.409 22.928-.006 32.432.049 44.1l.002.415 10.633-.155c-.002-6.018 4.417-11.273 10.44-11.301 5.131-.024 9.44 3.492 10.647 8.25.002-.004 0 0 0 0s.3.973.307 1.075c.106.46.215 1.046.293 1.708h.001l.205 1.477a21.103 21.103 0 0 0 5.95 10.445c3.82 3.661 9 5.91 14.71 5.884 11.667-.055 21.081-9.559 21.027-21.227-.003-.704-10.648-.24-10.648-.24.001.349-.022.702-.05 1.045-.447 5.587-4.685 10.209-10.377 10.236-4.962.023-9.156-3.264-10.517-7.784l-.006-.002-.003-.003.009.005s-.224-.62-.358-1.154a25.46 25.46 0 0 1-.245-1.58c-.028-.212-.141-.921-.208-1.34a21.07 21.07 0 0 0-6.076-11.097c-3.796-3.639-8.939-5.884-14.606-5.884h-.101z"/>
    </g>
</svg>
